<mxfile host="app.diagrams.net" agent="Mozilla/5.0 (Windows NT 10.0; Win64; x64) AppleWebKit/537.36 (KHTML, like Gecko) Chrome/126.0.0.0 Safari/537.36 OPR/112.0.0.0" version="24.7.7">
  <diagram name="Seite-1" id="7mq3fUHm076L4r2HvuKR">
    <mxGraphModel dx="2302" dy="1266" grid="1" gridSize="10" guides="1" tooltips="1" connect="1" arrows="1" fold="1" page="1" pageScale="1" pageWidth="1654" pageHeight="1169" math="0" shadow="0">
      <root>
        <mxCell id="0" />
        <mxCell id="1" parent="0" />
        <mxCell id="-6jkyIE3yQVWvQFI4JW6-1" value="&lt;h1 style=&quot;text-align: justify; margin-top: 0px;&quot;&gt;Airways&lt;/h1&gt;&lt;p style=&quot;text-align: justify; box-sizing: border-box; margin-top: 0px; margin-bottom: var(--base-size-16); color: rgb(230, 237, 243); font-family: -apple-system, BlinkMacSystemFont, &amp;quot;Segoe UI&amp;quot;, &amp;quot;Noto Sans&amp;quot;, Helvetica, Arial, sans-serif, &amp;quot;Apple Color Emoji&amp;quot;, &amp;quot;Segoe UI Emoji&amp;quot;; font-size: 16px; background-color: rgb(13, 17, 23);&quot; dir=&quot;auto&quot;&gt;The All Airways Association (AAA) is an association that brings together all airlines. This association plans to install a comprehensive information system for flight handling. An initial survey produces the following situation report:&lt;/p&gt;&lt;ul style=&quot;box-sizing: border-box; padding-left: 2em; margin-top: 0px; margin-bottom: var(--base-size-16); color: rgb(230, 237, 243); font-family: -apple-system, BlinkMacSystemFont, &amp;quot;Segoe UI&amp;quot;, &amp;quot;Noto Sans&amp;quot;, Helvetica, Arial, sans-serif, &amp;quot;Apple Color Emoji&amp;quot;, &amp;quot;Segoe UI Emoji&amp;quot;; font-size: 16px; background-color: rgb(13, 17, 23);&quot; dir=&quot;auto&quot;&gt;&lt;li style=&quot;text-align: justify; box-sizing: border-box;&quot;&gt;When a passenger (passenger number, name, Mr/Mrs, title, etc.) wants to book a flight (or several), he or she first specifies the desired departure and destination airports, the desired flight date and possibly also a time frame when he or she wants to fly away or arrive&lt;/li&gt;&lt;li style=&quot;text-align: justify; box-sizing: border-box;&quot;&gt;&lt;br&gt;&lt;/li&gt;&lt;li style=&quot;text-align: justify; box-sizing: border-box; margin-top: 0.25em;&quot;&gt;There are various airlines (name, headquarters, etc.) that operate flights. Airlines are identified by a code of maximum three digits (e.g., PA for PanAm, FUA for Futura Air).&lt;/li&gt;&lt;li style=&quot;text-align: justify; box-sizing: border-box; margin-top: 0.25em;&quot;&gt;&lt;br&gt;&lt;/li&gt;&lt;li style=&quot;text-align: justify; box-sizing: border-box; margin-top: 0.25em;&quot;&gt;Each airline operates aircraft (aircraft number, international registration number, name, date of entry into service, etc.) of different aircraft types (type identification, manufacturer, range, etc.).&lt;/li&gt;&lt;li style=&quot;text-align: justify; box-sizing: border-box; margin-top: 0.25em;&quot;&gt;&lt;br&gt;&lt;/li&gt;&lt;li style=&quot;text-align: justify; box-sizing: border-box; margin-top: 0.25em;&quot;&gt;The airports (name, city, country, capacity in aircraft, etc.) are also encrypted with a three-digit code (e.g., VIE for Vienna-Schwechat, JFK for New York - John F. Kennedy, IBZ for Ibiza).&lt;/li&gt;&lt;li style=&quot;text-align: justify; box-sizing: border-box; margin-top: 0.25em;&quot;&gt;&lt;br&gt;&lt;/li&gt;&lt;li style=&quot;text-align: justify; box-sizing: border-box; margin-top: 0.25em;&quot;&gt;The distances between airports must be recorded in order to be able to take the range of the aircraft type into account when drawing up the flight plan.&lt;/li&gt;&lt;li style=&quot;text-align: justify; box-sizing: border-box; margin-top: 0.25em;&quot;&gt;&lt;br&gt;&lt;/li&gt;&lt;li style=&quot;text-align: justify; box-sizing: border-box; margin-top: 0.25em;&quot;&gt;Each flight has a departure airport and an arrival airport, the flights are numbered consecutively with a three-digit number within a company. (e.g., PA039 between VIE and JFK, FUA916 between IBZ and VIE)&lt;/li&gt;&lt;li style=&quot;text-align: justify; box-sizing: border-box; margin-top: 0.25em;&quot;&gt;&lt;br&gt;&lt;/li&gt;&lt;li style=&quot;text-align: justify; box-sizing: border-box; margin-top: 0.25em;&quot;&gt;Each flight has a fixed scheduled departure and arrival time, and the days on which the flight takes place are also specified. (e.g., &#39;daily&#39;, &#39;only weekends&#39;, &#39;specific day of week&#39;).&lt;/li&gt;&lt;li style=&quot;text-align: justify; box-sizing: border-box; margin-top: 0.25em;&quot;&gt;&lt;br&gt;&lt;/li&gt;&lt;li style=&quot;text-align: justify; box-sizing: border-box; margin-top: 0.25em;&quot;&gt;Each flight booked by a passenger is summarized on one ticket (ticket number, date of issue, price, currency, sales office, etc.)&lt;/li&gt;&lt;li style=&quot;text-align: justify; box-sizing: border-box; margin-top: 0.25em;&quot;&gt;&lt;br&gt;&lt;/li&gt;&lt;li style=&quot;text-align: justify; box-sizing: border-box; margin-top: 0.25em;&quot;&gt;Before starting the flight, the passenger will be given a boarding card at the airport, on which in addition to the flight number, date, departure airport, destination airport and name of the passenger, the allocated seat (row as number, seat as letter, e.g., 18D) appears.&lt;/li&gt;&lt;li style=&quot;text-align: justify; box-sizing: border-box; margin-top: 0.25em;&quot;&gt;&lt;br&gt;&lt;/li&gt;&lt;li style=&quot;text-align: justify; box-sizing: border-box; margin-top: 0.25em;&quot;&gt;Each aircraft type has a specific number of available rows and seats (numbers/letters).&lt;/li&gt;&lt;li style=&quot;text-align: justify; box-sizing: border-box; margin-top: 0.25em;&quot;&gt;&lt;br&gt;&lt;/li&gt;&lt;li style=&quot;text-align: justify; box-sizing: border-box; margin-top: 0.25em;&quot;&gt;For each flight, it must also be possible to record the actual take-off and landing time in order to be able to make evaluations of the punctuality of individual flights.&lt;/li&gt;&lt;/ul&gt;" style="text;html=1;whiteSpace=wrap;overflow=hidden;rounded=0;" vertex="1" parent="1">
          <mxGeometry x="10" width="1640" height="590" as="geometry" />
        </mxCell>
        <mxCell id="-6jkyIE3yQVWvQFI4JW6-2" value="PASSENGER" style="shape=table;startSize=30;container=1;collapsible=1;childLayout=tableLayout;fixedRows=1;rowLines=0;fontStyle=1;align=center;resizeLast=1;html=1;" vertex="1" parent="1">
          <mxGeometry x="60" y="740" width="180" height="150" as="geometry" />
        </mxCell>
        <mxCell id="-6jkyIE3yQVWvQFI4JW6-3" value="" style="shape=tableRow;horizontal=0;startSize=0;swimlaneHead=0;swimlaneBody=0;fillColor=none;collapsible=0;dropTarget=0;points=[[0,0.5],[1,0.5]];portConstraint=eastwest;top=0;left=0;right=0;bottom=1;" vertex="1" parent="-6jkyIE3yQVWvQFI4JW6-2">
          <mxGeometry y="30" width="180" height="30" as="geometry" />
        </mxCell>
        <mxCell id="-6jkyIE3yQVWvQFI4JW6-4" value="PK" style="shape=partialRectangle;connectable=0;fillColor=none;top=0;left=0;bottom=0;right=0;fontStyle=1;overflow=hidden;whiteSpace=wrap;html=1;" vertex="1" parent="-6jkyIE3yQVWvQFI4JW6-3">
          <mxGeometry width="30" height="30" as="geometry">
            <mxRectangle width="30" height="30" as="alternateBounds" />
          </mxGeometry>
        </mxCell>
        <mxCell id="-6jkyIE3yQVWvQFI4JW6-5" value="Passenger number" style="shape=partialRectangle;connectable=0;fillColor=none;top=0;left=0;bottom=0;right=0;align=left;spacingLeft=6;fontStyle=5;overflow=hidden;whiteSpace=wrap;html=1;" vertex="1" parent="-6jkyIE3yQVWvQFI4JW6-3">
          <mxGeometry x="30" width="150" height="30" as="geometry">
            <mxRectangle width="150" height="30" as="alternateBounds" />
          </mxGeometry>
        </mxCell>
        <mxCell id="-6jkyIE3yQVWvQFI4JW6-6" value="" style="shape=tableRow;horizontal=0;startSize=0;swimlaneHead=0;swimlaneBody=0;fillColor=none;collapsible=0;dropTarget=0;points=[[0,0.5],[1,0.5]];portConstraint=eastwest;top=0;left=0;right=0;bottom=0;" vertex="1" parent="-6jkyIE3yQVWvQFI4JW6-2">
          <mxGeometry y="60" width="180" height="30" as="geometry" />
        </mxCell>
        <mxCell id="-6jkyIE3yQVWvQFI4JW6-7" value="" style="shape=partialRectangle;connectable=0;fillColor=none;top=0;left=0;bottom=0;right=0;editable=1;overflow=hidden;whiteSpace=wrap;html=1;" vertex="1" parent="-6jkyIE3yQVWvQFI4JW6-6">
          <mxGeometry width="30" height="30" as="geometry">
            <mxRectangle width="30" height="30" as="alternateBounds" />
          </mxGeometry>
        </mxCell>
        <mxCell id="-6jkyIE3yQVWvQFI4JW6-8" value="Mr/Mrs" style="shape=partialRectangle;connectable=0;fillColor=none;top=0;left=0;bottom=0;right=0;align=left;spacingLeft=6;overflow=hidden;whiteSpace=wrap;html=1;" vertex="1" parent="-6jkyIE3yQVWvQFI4JW6-6">
          <mxGeometry x="30" width="150" height="30" as="geometry">
            <mxRectangle width="150" height="30" as="alternateBounds" />
          </mxGeometry>
        </mxCell>
        <mxCell id="-6jkyIE3yQVWvQFI4JW6-9" value="" style="shape=tableRow;horizontal=0;startSize=0;swimlaneHead=0;swimlaneBody=0;fillColor=none;collapsible=0;dropTarget=0;points=[[0,0.5],[1,0.5]];portConstraint=eastwest;top=0;left=0;right=0;bottom=0;" vertex="1" parent="-6jkyIE3yQVWvQFI4JW6-2">
          <mxGeometry y="90" width="180" height="30" as="geometry" />
        </mxCell>
        <mxCell id="-6jkyIE3yQVWvQFI4JW6-10" value="" style="shape=partialRectangle;connectable=0;fillColor=none;top=0;left=0;bottom=0;right=0;editable=1;overflow=hidden;whiteSpace=wrap;html=1;" vertex="1" parent="-6jkyIE3yQVWvQFI4JW6-9">
          <mxGeometry width="30" height="30" as="geometry">
            <mxRectangle width="30" height="30" as="alternateBounds" />
          </mxGeometry>
        </mxCell>
        <mxCell id="-6jkyIE3yQVWvQFI4JW6-11" value="Title" style="shape=partialRectangle;connectable=0;fillColor=none;top=0;left=0;bottom=0;right=0;align=left;spacingLeft=6;overflow=hidden;whiteSpace=wrap;html=1;" vertex="1" parent="-6jkyIE3yQVWvQFI4JW6-9">
          <mxGeometry x="30" width="150" height="30" as="geometry">
            <mxRectangle width="150" height="30" as="alternateBounds" />
          </mxGeometry>
        </mxCell>
        <mxCell id="-6jkyIE3yQVWvQFI4JW6-12" value="" style="shape=tableRow;horizontal=0;startSize=0;swimlaneHead=0;swimlaneBody=0;fillColor=none;collapsible=0;dropTarget=0;points=[[0,0.5],[1,0.5]];portConstraint=eastwest;top=0;left=0;right=0;bottom=0;" vertex="1" parent="-6jkyIE3yQVWvQFI4JW6-2">
          <mxGeometry y="120" width="180" height="30" as="geometry" />
        </mxCell>
        <mxCell id="-6jkyIE3yQVWvQFI4JW6-13" value="" style="shape=partialRectangle;connectable=0;fillColor=none;top=0;left=0;bottom=0;right=0;editable=1;overflow=hidden;whiteSpace=wrap;html=1;" vertex="1" parent="-6jkyIE3yQVWvQFI4JW6-12">
          <mxGeometry width="30" height="30" as="geometry">
            <mxRectangle width="30" height="30" as="alternateBounds" />
          </mxGeometry>
        </mxCell>
        <mxCell id="-6jkyIE3yQVWvQFI4JW6-14" value="Name" style="shape=partialRectangle;connectable=0;fillColor=none;top=0;left=0;bottom=0;right=0;align=left;spacingLeft=6;overflow=hidden;whiteSpace=wrap;html=1;" vertex="1" parent="-6jkyIE3yQVWvQFI4JW6-12">
          <mxGeometry x="30" width="150" height="30" as="geometry">
            <mxRectangle width="150" height="30" as="alternateBounds" />
          </mxGeometry>
        </mxCell>
        <mxCell id="-6jkyIE3yQVWvQFI4JW6-15" value="AIRLINE" style="shape=table;startSize=30;container=1;collapsible=1;childLayout=tableLayout;fixedRows=1;rowLines=0;fontStyle=1;align=center;resizeLast=1;html=1;" vertex="1" parent="1">
          <mxGeometry x="300" y="740" width="180" height="150" as="geometry" />
        </mxCell>
        <mxCell id="-6jkyIE3yQVWvQFI4JW6-16" value="" style="shape=tableRow;horizontal=0;startSize=0;swimlaneHead=0;swimlaneBody=0;fillColor=none;collapsible=0;dropTarget=0;points=[[0,0.5],[1,0.5]];portConstraint=eastwest;top=0;left=0;right=0;bottom=1;" vertex="1" parent="-6jkyIE3yQVWvQFI4JW6-15">
          <mxGeometry y="30" width="180" height="30" as="geometry" />
        </mxCell>
        <mxCell id="-6jkyIE3yQVWvQFI4JW6-17" value="PK" style="shape=partialRectangle;connectable=0;fillColor=none;top=0;left=0;bottom=0;right=0;fontStyle=1;overflow=hidden;whiteSpace=wrap;html=1;" vertex="1" parent="-6jkyIE3yQVWvQFI4JW6-16">
          <mxGeometry width="30" height="30" as="geometry">
            <mxRectangle width="30" height="30" as="alternateBounds" />
          </mxGeometry>
        </mxCell>
        <mxCell id="-6jkyIE3yQVWvQFI4JW6-18" value="Code-ID" style="shape=partialRectangle;connectable=0;fillColor=none;top=0;left=0;bottom=0;right=0;align=left;spacingLeft=6;fontStyle=5;overflow=hidden;whiteSpace=wrap;html=1;" vertex="1" parent="-6jkyIE3yQVWvQFI4JW6-16">
          <mxGeometry x="30" width="150" height="30" as="geometry">
            <mxRectangle width="150" height="30" as="alternateBounds" />
          </mxGeometry>
        </mxCell>
        <mxCell id="-6jkyIE3yQVWvQFI4JW6-19" value="" style="shape=tableRow;horizontal=0;startSize=0;swimlaneHead=0;swimlaneBody=0;fillColor=none;collapsible=0;dropTarget=0;points=[[0,0.5],[1,0.5]];portConstraint=eastwest;top=0;left=0;right=0;bottom=0;" vertex="1" parent="-6jkyIE3yQVWvQFI4JW6-15">
          <mxGeometry y="60" width="180" height="30" as="geometry" />
        </mxCell>
        <mxCell id="-6jkyIE3yQVWvQFI4JW6-20" value="" style="shape=partialRectangle;connectable=0;fillColor=none;top=0;left=0;bottom=0;right=0;editable=1;overflow=hidden;whiteSpace=wrap;html=1;" vertex="1" parent="-6jkyIE3yQVWvQFI4JW6-19">
          <mxGeometry width="30" height="30" as="geometry">
            <mxRectangle width="30" height="30" as="alternateBounds" />
          </mxGeometry>
        </mxCell>
        <mxCell id="-6jkyIE3yQVWvQFI4JW6-21" value="Name" style="shape=partialRectangle;connectable=0;fillColor=none;top=0;left=0;bottom=0;right=0;align=left;spacingLeft=6;overflow=hidden;whiteSpace=wrap;html=1;" vertex="1" parent="-6jkyIE3yQVWvQFI4JW6-19">
          <mxGeometry x="30" width="150" height="30" as="geometry">
            <mxRectangle width="150" height="30" as="alternateBounds" />
          </mxGeometry>
        </mxCell>
        <mxCell id="-6jkyIE3yQVWvQFI4JW6-22" value="" style="shape=tableRow;horizontal=0;startSize=0;swimlaneHead=0;swimlaneBody=0;fillColor=none;collapsible=0;dropTarget=0;points=[[0,0.5],[1,0.5]];portConstraint=eastwest;top=0;left=0;right=0;bottom=0;" vertex="1" parent="-6jkyIE3yQVWvQFI4JW6-15">
          <mxGeometry y="90" width="180" height="30" as="geometry" />
        </mxCell>
        <mxCell id="-6jkyIE3yQVWvQFI4JW6-23" value="" style="shape=partialRectangle;connectable=0;fillColor=none;top=0;left=0;bottom=0;right=0;editable=1;overflow=hidden;whiteSpace=wrap;html=1;" vertex="1" parent="-6jkyIE3yQVWvQFI4JW6-22">
          <mxGeometry width="30" height="30" as="geometry">
            <mxRectangle width="30" height="30" as="alternateBounds" />
          </mxGeometry>
        </mxCell>
        <mxCell id="-6jkyIE3yQVWvQFI4JW6-24" value="Headquarters" style="shape=partialRectangle;connectable=0;fillColor=none;top=0;left=0;bottom=0;right=0;align=left;spacingLeft=6;overflow=hidden;whiteSpace=wrap;html=1;" vertex="1" parent="-6jkyIE3yQVWvQFI4JW6-22">
          <mxGeometry x="30" width="150" height="30" as="geometry">
            <mxRectangle width="150" height="30" as="alternateBounds" />
          </mxGeometry>
        </mxCell>
        <mxCell id="-6jkyIE3yQVWvQFI4JW6-25" value="" style="shape=tableRow;horizontal=0;startSize=0;swimlaneHead=0;swimlaneBody=0;fillColor=none;collapsible=0;dropTarget=0;points=[[0,0.5],[1,0.5]];portConstraint=eastwest;top=0;left=0;right=0;bottom=0;" vertex="1" parent="-6jkyIE3yQVWvQFI4JW6-15">
          <mxGeometry y="120" width="180" height="30" as="geometry" />
        </mxCell>
        <mxCell id="-6jkyIE3yQVWvQFI4JW6-26" value="" style="shape=partialRectangle;connectable=0;fillColor=none;top=0;left=0;bottom=0;right=0;editable=1;overflow=hidden;whiteSpace=wrap;html=1;" vertex="1" parent="-6jkyIE3yQVWvQFI4JW6-25">
          <mxGeometry width="30" height="30" as="geometry">
            <mxRectangle width="30" height="30" as="alternateBounds" />
          </mxGeometry>
        </mxCell>
        <mxCell id="-6jkyIE3yQVWvQFI4JW6-27" value="Row 3" style="shape=partialRectangle;connectable=0;fillColor=none;top=0;left=0;bottom=0;right=0;align=left;spacingLeft=6;overflow=hidden;whiteSpace=wrap;html=1;" vertex="1" parent="-6jkyIE3yQVWvQFI4JW6-25">
          <mxGeometry x="30" width="150" height="30" as="geometry">
            <mxRectangle width="150" height="30" as="alternateBounds" />
          </mxGeometry>
        </mxCell>
        <mxCell id="-6jkyIE3yQVWvQFI4JW6-28" value="AIRCRAFT" style="shape=table;startSize=30;container=1;collapsible=1;childLayout=tableLayout;fixedRows=1;rowLines=0;fontStyle=1;align=center;resizeLast=1;html=1;" vertex="1" parent="1">
          <mxGeometry x="540" y="740" width="180" height="150" as="geometry" />
        </mxCell>
        <mxCell id="-6jkyIE3yQVWvQFI4JW6-29" value="" style="shape=tableRow;horizontal=0;startSize=0;swimlaneHead=0;swimlaneBody=0;fillColor=none;collapsible=0;dropTarget=0;points=[[0,0.5],[1,0.5]];portConstraint=eastwest;top=0;left=0;right=0;bottom=1;" vertex="1" parent="-6jkyIE3yQVWvQFI4JW6-28">
          <mxGeometry y="30" width="180" height="30" as="geometry" />
        </mxCell>
        <mxCell id="-6jkyIE3yQVWvQFI4JW6-30" value="PK" style="shape=partialRectangle;connectable=0;fillColor=none;top=0;left=0;bottom=0;right=0;fontStyle=1;overflow=hidden;whiteSpace=wrap;html=1;" vertex="1" parent="-6jkyIE3yQVWvQFI4JW6-29">
          <mxGeometry width="30" height="30" as="geometry">
            <mxRectangle width="30" height="30" as="alternateBounds" />
          </mxGeometry>
        </mxCell>
        <mxCell id="-6jkyIE3yQVWvQFI4JW6-31" value="&lt;span style=&quot;font-weight: 400;&quot;&gt;International Reg.-number&lt;/span&gt;" style="shape=partialRectangle;connectable=0;fillColor=none;top=0;left=0;bottom=0;right=0;align=left;spacingLeft=6;fontStyle=5;overflow=hidden;whiteSpace=wrap;html=1;" vertex="1" parent="-6jkyIE3yQVWvQFI4JW6-29">
          <mxGeometry x="30" width="150" height="30" as="geometry">
            <mxRectangle width="150" height="30" as="alternateBounds" />
          </mxGeometry>
        </mxCell>
        <mxCell id="-6jkyIE3yQVWvQFI4JW6-32" value="" style="shape=tableRow;horizontal=0;startSize=0;swimlaneHead=0;swimlaneBody=0;fillColor=none;collapsible=0;dropTarget=0;points=[[0,0.5],[1,0.5]];portConstraint=eastwest;top=0;left=0;right=0;bottom=0;" vertex="1" parent="-6jkyIE3yQVWvQFI4JW6-28">
          <mxGeometry y="60" width="180" height="30" as="geometry" />
        </mxCell>
        <mxCell id="-6jkyIE3yQVWvQFI4JW6-33" value="" style="shape=partialRectangle;connectable=0;fillColor=none;top=0;left=0;bottom=0;right=0;editable=1;overflow=hidden;whiteSpace=wrap;html=1;" vertex="1" parent="-6jkyIE3yQVWvQFI4JW6-32">
          <mxGeometry width="30" height="30" as="geometry">
            <mxRectangle width="30" height="30" as="alternateBounds" />
          </mxGeometry>
        </mxCell>
        <mxCell id="-6jkyIE3yQVWvQFI4JW6-34" value="Name" style="shape=partialRectangle;connectable=0;fillColor=none;top=0;left=0;bottom=0;right=0;align=left;spacingLeft=6;overflow=hidden;whiteSpace=wrap;html=1;" vertex="1" parent="-6jkyIE3yQVWvQFI4JW6-32">
          <mxGeometry x="30" width="150" height="30" as="geometry">
            <mxRectangle width="150" height="30" as="alternateBounds" />
          </mxGeometry>
        </mxCell>
        <mxCell id="-6jkyIE3yQVWvQFI4JW6-38" value="" style="shape=tableRow;horizontal=0;startSize=0;swimlaneHead=0;swimlaneBody=0;fillColor=none;collapsible=0;dropTarget=0;points=[[0,0.5],[1,0.5]];portConstraint=eastwest;top=0;left=0;right=0;bottom=0;" vertex="1" parent="-6jkyIE3yQVWvQFI4JW6-28">
          <mxGeometry y="90" width="180" height="30" as="geometry" />
        </mxCell>
        <mxCell id="-6jkyIE3yQVWvQFI4JW6-39" value="" style="shape=partialRectangle;connectable=0;fillColor=none;top=0;left=0;bottom=0;right=0;editable=1;overflow=hidden;whiteSpace=wrap;html=1;" vertex="1" parent="-6jkyIE3yQVWvQFI4JW6-38">
          <mxGeometry width="30" height="30" as="geometry">
            <mxRectangle width="30" height="30" as="alternateBounds" />
          </mxGeometry>
        </mxCell>
        <mxCell id="-6jkyIE3yQVWvQFI4JW6-40" value="Date of entry into service" style="shape=partialRectangle;connectable=0;fillColor=none;top=0;left=0;bottom=0;right=0;align=left;spacingLeft=6;overflow=hidden;whiteSpace=wrap;html=1;" vertex="1" parent="-6jkyIE3yQVWvQFI4JW6-38">
          <mxGeometry x="30" width="150" height="30" as="geometry">
            <mxRectangle width="150" height="30" as="alternateBounds" />
          </mxGeometry>
        </mxCell>
        <mxCell id="-6jkyIE3yQVWvQFI4JW6-54" value="" style="shape=tableRow;horizontal=0;startSize=0;swimlaneHead=0;swimlaneBody=0;fillColor=none;collapsible=0;dropTarget=0;points=[[0,0.5],[1,0.5]];portConstraint=eastwest;top=0;left=0;right=0;bottom=0;" vertex="1" parent="-6jkyIE3yQVWvQFI4JW6-28">
          <mxGeometry y="120" width="180" height="30" as="geometry" />
        </mxCell>
        <mxCell id="-6jkyIE3yQVWvQFI4JW6-55" value="" style="shape=partialRectangle;connectable=0;fillColor=none;top=0;left=0;bottom=0;right=0;editable=1;overflow=hidden;whiteSpace=wrap;html=1;" vertex="1" parent="-6jkyIE3yQVWvQFI4JW6-54">
          <mxGeometry width="30" height="30" as="geometry">
            <mxRectangle width="30" height="30" as="alternateBounds" />
          </mxGeometry>
        </mxCell>
        <mxCell id="-6jkyIE3yQVWvQFI4JW6-56" value="Aircraft-No" style="shape=partialRectangle;connectable=0;fillColor=none;top=0;left=0;bottom=0;right=0;align=left;spacingLeft=6;overflow=hidden;whiteSpace=wrap;html=1;" vertex="1" parent="-6jkyIE3yQVWvQFI4JW6-54">
          <mxGeometry x="30" width="150" height="30" as="geometry">
            <mxRectangle width="150" height="30" as="alternateBounds" />
          </mxGeometry>
        </mxCell>
        <mxCell id="-6jkyIE3yQVWvQFI4JW6-57" value="TYPE" style="shape=table;startSize=30;container=1;collapsible=1;childLayout=tableLayout;fixedRows=1;rowLines=0;fontStyle=1;align=center;resizeLast=1;html=1;" vertex="1" parent="1">
          <mxGeometry x="780" y="740" width="180" height="150" as="geometry" />
        </mxCell>
        <mxCell id="-6jkyIE3yQVWvQFI4JW6-58" value="" style="shape=tableRow;horizontal=0;startSize=0;swimlaneHead=0;swimlaneBody=0;fillColor=none;collapsible=0;dropTarget=0;points=[[0,0.5],[1,0.5]];portConstraint=eastwest;top=0;left=0;right=0;bottom=1;" vertex="1" parent="-6jkyIE3yQVWvQFI4JW6-57">
          <mxGeometry y="30" width="180" height="30" as="geometry" />
        </mxCell>
        <mxCell id="-6jkyIE3yQVWvQFI4JW6-59" value="PK" style="shape=partialRectangle;connectable=0;fillColor=none;top=0;left=0;bottom=0;right=0;fontStyle=1;overflow=hidden;whiteSpace=wrap;html=1;" vertex="1" parent="-6jkyIE3yQVWvQFI4JW6-58">
          <mxGeometry width="30" height="30" as="geometry">
            <mxRectangle width="30" height="30" as="alternateBounds" />
          </mxGeometry>
        </mxCell>
        <mxCell id="-6jkyIE3yQVWvQFI4JW6-60" value="Type identification" style="shape=partialRectangle;connectable=0;fillColor=none;top=0;left=0;bottom=0;right=0;align=left;spacingLeft=6;fontStyle=5;overflow=hidden;whiteSpace=wrap;html=1;" vertex="1" parent="-6jkyIE3yQVWvQFI4JW6-58">
          <mxGeometry x="30" width="150" height="30" as="geometry">
            <mxRectangle width="150" height="30" as="alternateBounds" />
          </mxGeometry>
        </mxCell>
        <mxCell id="-6jkyIE3yQVWvQFI4JW6-61" value="" style="shape=tableRow;horizontal=0;startSize=0;swimlaneHead=0;swimlaneBody=0;fillColor=none;collapsible=0;dropTarget=0;points=[[0,0.5],[1,0.5]];portConstraint=eastwest;top=0;left=0;right=0;bottom=0;" vertex="1" parent="-6jkyIE3yQVWvQFI4JW6-57">
          <mxGeometry y="60" width="180" height="30" as="geometry" />
        </mxCell>
        <mxCell id="-6jkyIE3yQVWvQFI4JW6-62" value="" style="shape=partialRectangle;connectable=0;fillColor=none;top=0;left=0;bottom=0;right=0;editable=1;overflow=hidden;whiteSpace=wrap;html=1;" vertex="1" parent="-6jkyIE3yQVWvQFI4JW6-61">
          <mxGeometry width="30" height="30" as="geometry">
            <mxRectangle width="30" height="30" as="alternateBounds" />
          </mxGeometry>
        </mxCell>
        <mxCell id="-6jkyIE3yQVWvQFI4JW6-63" value="Manufacturer" style="shape=partialRectangle;connectable=0;fillColor=none;top=0;left=0;bottom=0;right=0;align=left;spacingLeft=6;overflow=hidden;whiteSpace=wrap;html=1;" vertex="1" parent="-6jkyIE3yQVWvQFI4JW6-61">
          <mxGeometry x="30" width="150" height="30" as="geometry">
            <mxRectangle width="150" height="30" as="alternateBounds" />
          </mxGeometry>
        </mxCell>
        <mxCell id="-6jkyIE3yQVWvQFI4JW6-64" value="" style="shape=tableRow;horizontal=0;startSize=0;swimlaneHead=0;swimlaneBody=0;fillColor=none;collapsible=0;dropTarget=0;points=[[0,0.5],[1,0.5]];portConstraint=eastwest;top=0;left=0;right=0;bottom=0;" vertex="1" parent="-6jkyIE3yQVWvQFI4JW6-57">
          <mxGeometry y="90" width="180" height="30" as="geometry" />
        </mxCell>
        <mxCell id="-6jkyIE3yQVWvQFI4JW6-65" value="" style="shape=partialRectangle;connectable=0;fillColor=none;top=0;left=0;bottom=0;right=0;editable=1;overflow=hidden;whiteSpace=wrap;html=1;" vertex="1" parent="-6jkyIE3yQVWvQFI4JW6-64">
          <mxGeometry width="30" height="30" as="geometry">
            <mxRectangle width="30" height="30" as="alternateBounds" />
          </mxGeometry>
        </mxCell>
        <mxCell id="-6jkyIE3yQVWvQFI4JW6-66" value="Range" style="shape=partialRectangle;connectable=0;fillColor=none;top=0;left=0;bottom=0;right=0;align=left;spacingLeft=6;overflow=hidden;whiteSpace=wrap;html=1;" vertex="1" parent="-6jkyIE3yQVWvQFI4JW6-64">
          <mxGeometry x="30" width="150" height="30" as="geometry">
            <mxRectangle width="150" height="30" as="alternateBounds" />
          </mxGeometry>
        </mxCell>
        <mxCell id="-6jkyIE3yQVWvQFI4JW6-67" value="" style="shape=tableRow;horizontal=0;startSize=0;swimlaneHead=0;swimlaneBody=0;fillColor=none;collapsible=0;dropTarget=0;points=[[0,0.5],[1,0.5]];portConstraint=eastwest;top=0;left=0;right=0;bottom=0;" vertex="1" parent="-6jkyIE3yQVWvQFI4JW6-57">
          <mxGeometry y="120" width="180" height="30" as="geometry" />
        </mxCell>
        <mxCell id="-6jkyIE3yQVWvQFI4JW6-68" value="" style="shape=partialRectangle;connectable=0;fillColor=none;top=0;left=0;bottom=0;right=0;editable=1;overflow=hidden;whiteSpace=wrap;html=1;" vertex="1" parent="-6jkyIE3yQVWvQFI4JW6-67">
          <mxGeometry width="30" height="30" as="geometry">
            <mxRectangle width="30" height="30" as="alternateBounds" />
          </mxGeometry>
        </mxCell>
        <mxCell id="-6jkyIE3yQVWvQFI4JW6-69" value="Row 3" style="shape=partialRectangle;connectable=0;fillColor=none;top=0;left=0;bottom=0;right=0;align=left;spacingLeft=6;overflow=hidden;whiteSpace=wrap;html=1;" vertex="1" parent="-6jkyIE3yQVWvQFI4JW6-67">
          <mxGeometry x="30" width="150" height="30" as="geometry">
            <mxRectangle width="150" height="30" as="alternateBounds" />
          </mxGeometry>
        </mxCell>
        <mxCell id="-6jkyIE3yQVWvQFI4JW6-70" value="AIRPORT" style="shape=table;startSize=30;container=1;collapsible=1;childLayout=tableLayout;fixedRows=1;rowLines=0;fontStyle=1;align=center;resizeLast=1;html=1;" vertex="1" parent="1">
          <mxGeometry x="1020" y="740" width="180" height="180" as="geometry" />
        </mxCell>
        <mxCell id="-6jkyIE3yQVWvQFI4JW6-71" value="" style="shape=tableRow;horizontal=0;startSize=0;swimlaneHead=0;swimlaneBody=0;fillColor=none;collapsible=0;dropTarget=0;points=[[0,0.5],[1,0.5]];portConstraint=eastwest;top=0;left=0;right=0;bottom=1;" vertex="1" parent="-6jkyIE3yQVWvQFI4JW6-70">
          <mxGeometry y="30" width="180" height="30" as="geometry" />
        </mxCell>
        <mxCell id="-6jkyIE3yQVWvQFI4JW6-72" value="PK" style="shape=partialRectangle;connectable=0;fillColor=none;top=0;left=0;bottom=0;right=0;fontStyle=1;overflow=hidden;whiteSpace=wrap;html=1;" vertex="1" parent="-6jkyIE3yQVWvQFI4JW6-71">
          <mxGeometry width="30" height="30" as="geometry">
            <mxRectangle width="30" height="30" as="alternateBounds" />
          </mxGeometry>
        </mxCell>
        <mxCell id="-6jkyIE3yQVWvQFI4JW6-73" value="Code-ID" style="shape=partialRectangle;connectable=0;fillColor=none;top=0;left=0;bottom=0;right=0;align=left;spacingLeft=6;fontStyle=5;overflow=hidden;whiteSpace=wrap;html=1;" vertex="1" parent="-6jkyIE3yQVWvQFI4JW6-71">
          <mxGeometry x="30" width="150" height="30" as="geometry">
            <mxRectangle width="150" height="30" as="alternateBounds" />
          </mxGeometry>
        </mxCell>
        <mxCell id="-6jkyIE3yQVWvQFI4JW6-74" value="" style="shape=tableRow;horizontal=0;startSize=0;swimlaneHead=0;swimlaneBody=0;fillColor=none;collapsible=0;dropTarget=0;points=[[0,0.5],[1,0.5]];portConstraint=eastwest;top=0;left=0;right=0;bottom=0;" vertex="1" parent="-6jkyIE3yQVWvQFI4JW6-70">
          <mxGeometry y="60" width="180" height="30" as="geometry" />
        </mxCell>
        <mxCell id="-6jkyIE3yQVWvQFI4JW6-75" value="" style="shape=partialRectangle;connectable=0;fillColor=none;top=0;left=0;bottom=0;right=0;editable=1;overflow=hidden;whiteSpace=wrap;html=1;" vertex="1" parent="-6jkyIE3yQVWvQFI4JW6-74">
          <mxGeometry width="30" height="30" as="geometry">
            <mxRectangle width="30" height="30" as="alternateBounds" />
          </mxGeometry>
        </mxCell>
        <mxCell id="-6jkyIE3yQVWvQFI4JW6-76" value="Name" style="shape=partialRectangle;connectable=0;fillColor=none;top=0;left=0;bottom=0;right=0;align=left;spacingLeft=6;overflow=hidden;whiteSpace=wrap;html=1;" vertex="1" parent="-6jkyIE3yQVWvQFI4JW6-74">
          <mxGeometry x="30" width="150" height="30" as="geometry">
            <mxRectangle width="150" height="30" as="alternateBounds" />
          </mxGeometry>
        </mxCell>
        <mxCell id="-6jkyIE3yQVWvQFI4JW6-77" value="" style="shape=tableRow;horizontal=0;startSize=0;swimlaneHead=0;swimlaneBody=0;fillColor=none;collapsible=0;dropTarget=0;points=[[0,0.5],[1,0.5]];portConstraint=eastwest;top=0;left=0;right=0;bottom=0;" vertex="1" parent="-6jkyIE3yQVWvQFI4JW6-70">
          <mxGeometry y="90" width="180" height="30" as="geometry" />
        </mxCell>
        <mxCell id="-6jkyIE3yQVWvQFI4JW6-78" value="" style="shape=partialRectangle;connectable=0;fillColor=none;top=0;left=0;bottom=0;right=0;editable=1;overflow=hidden;whiteSpace=wrap;html=1;" vertex="1" parent="-6jkyIE3yQVWvQFI4JW6-77">
          <mxGeometry width="30" height="30" as="geometry">
            <mxRectangle width="30" height="30" as="alternateBounds" />
          </mxGeometry>
        </mxCell>
        <mxCell id="-6jkyIE3yQVWvQFI4JW6-79" value="City" style="shape=partialRectangle;connectable=0;fillColor=none;top=0;left=0;bottom=0;right=0;align=left;spacingLeft=6;overflow=hidden;whiteSpace=wrap;html=1;" vertex="1" parent="-6jkyIE3yQVWvQFI4JW6-77">
          <mxGeometry x="30" width="150" height="30" as="geometry">
            <mxRectangle width="150" height="30" as="alternateBounds" />
          </mxGeometry>
        </mxCell>
        <mxCell id="-6jkyIE3yQVWvQFI4JW6-80" value="" style="shape=tableRow;horizontal=0;startSize=0;swimlaneHead=0;swimlaneBody=0;fillColor=none;collapsible=0;dropTarget=0;points=[[0,0.5],[1,0.5]];portConstraint=eastwest;top=0;left=0;right=0;bottom=0;" vertex="1" parent="-6jkyIE3yQVWvQFI4JW6-70">
          <mxGeometry y="120" width="180" height="30" as="geometry" />
        </mxCell>
        <mxCell id="-6jkyIE3yQVWvQFI4JW6-81" value="" style="shape=partialRectangle;connectable=0;fillColor=none;top=0;left=0;bottom=0;right=0;editable=1;overflow=hidden;whiteSpace=wrap;html=1;" vertex="1" parent="-6jkyIE3yQVWvQFI4JW6-80">
          <mxGeometry width="30" height="30" as="geometry">
            <mxRectangle width="30" height="30" as="alternateBounds" />
          </mxGeometry>
        </mxCell>
        <mxCell id="-6jkyIE3yQVWvQFI4JW6-82" value="Country" style="shape=partialRectangle;connectable=0;fillColor=none;top=0;left=0;bottom=0;right=0;align=left;spacingLeft=6;overflow=hidden;whiteSpace=wrap;html=1;" vertex="1" parent="-6jkyIE3yQVWvQFI4JW6-80">
          <mxGeometry x="30" width="150" height="30" as="geometry">
            <mxRectangle width="150" height="30" as="alternateBounds" />
          </mxGeometry>
        </mxCell>
        <mxCell id="-6jkyIE3yQVWvQFI4JW6-83" value="" style="shape=tableRow;horizontal=0;startSize=0;swimlaneHead=0;swimlaneBody=0;fillColor=none;collapsible=0;dropTarget=0;points=[[0,0.5],[1,0.5]];portConstraint=eastwest;top=0;left=0;right=0;bottom=0;" vertex="1" parent="-6jkyIE3yQVWvQFI4JW6-70">
          <mxGeometry y="150" width="180" height="30" as="geometry" />
        </mxCell>
        <mxCell id="-6jkyIE3yQVWvQFI4JW6-84" value="" style="shape=partialRectangle;connectable=0;fillColor=none;top=0;left=0;bottom=0;right=0;editable=1;overflow=hidden;whiteSpace=wrap;html=1;" vertex="1" parent="-6jkyIE3yQVWvQFI4JW6-83">
          <mxGeometry width="30" height="30" as="geometry">
            <mxRectangle width="30" height="30" as="alternateBounds" />
          </mxGeometry>
        </mxCell>
        <mxCell id="-6jkyIE3yQVWvQFI4JW6-85" value="Capacity in aircraft" style="shape=partialRectangle;connectable=0;fillColor=none;top=0;left=0;bottom=0;right=0;align=left;spacingLeft=6;overflow=hidden;whiteSpace=wrap;html=1;" vertex="1" parent="-6jkyIE3yQVWvQFI4JW6-83">
          <mxGeometry x="30" width="150" height="30" as="geometry">
            <mxRectangle width="150" height="30" as="alternateBounds" />
          </mxGeometry>
        </mxCell>
        <mxCell id="-6jkyIE3yQVWvQFI4JW6-86" value="TICKET" style="shape=table;startSize=30;container=1;collapsible=1;childLayout=tableLayout;fixedRows=1;rowLines=0;fontStyle=1;align=center;resizeLast=1;html=1;" vertex="1" parent="1">
          <mxGeometry x="1260" y="740" width="180" height="180" as="geometry" />
        </mxCell>
        <mxCell id="-6jkyIE3yQVWvQFI4JW6-87" value="" style="shape=tableRow;horizontal=0;startSize=0;swimlaneHead=0;swimlaneBody=0;fillColor=none;collapsible=0;dropTarget=0;points=[[0,0.5],[1,0.5]];portConstraint=eastwest;top=0;left=0;right=0;bottom=1;" vertex="1" parent="-6jkyIE3yQVWvQFI4JW6-86">
          <mxGeometry y="30" width="180" height="30" as="geometry" />
        </mxCell>
        <mxCell id="-6jkyIE3yQVWvQFI4JW6-88" value="PK" style="shape=partialRectangle;connectable=0;fillColor=none;top=0;left=0;bottom=0;right=0;fontStyle=1;overflow=hidden;whiteSpace=wrap;html=1;" vertex="1" parent="-6jkyIE3yQVWvQFI4JW6-87">
          <mxGeometry width="30" height="30" as="geometry">
            <mxRectangle width="30" height="30" as="alternateBounds" />
          </mxGeometry>
        </mxCell>
        <mxCell id="-6jkyIE3yQVWvQFI4JW6-89" value="Ticket-No" style="shape=partialRectangle;connectable=0;fillColor=none;top=0;left=0;bottom=0;right=0;align=left;spacingLeft=6;fontStyle=5;overflow=hidden;whiteSpace=wrap;html=1;" vertex="1" parent="-6jkyIE3yQVWvQFI4JW6-87">
          <mxGeometry x="30" width="150" height="30" as="geometry">
            <mxRectangle width="150" height="30" as="alternateBounds" />
          </mxGeometry>
        </mxCell>
        <mxCell id="-6jkyIE3yQVWvQFI4JW6-90" value="" style="shape=tableRow;horizontal=0;startSize=0;swimlaneHead=0;swimlaneBody=0;fillColor=none;collapsible=0;dropTarget=0;points=[[0,0.5],[1,0.5]];portConstraint=eastwest;top=0;left=0;right=0;bottom=0;" vertex="1" parent="-6jkyIE3yQVWvQFI4JW6-86">
          <mxGeometry y="60" width="180" height="30" as="geometry" />
        </mxCell>
        <mxCell id="-6jkyIE3yQVWvQFI4JW6-91" value="" style="shape=partialRectangle;connectable=0;fillColor=none;top=0;left=0;bottom=0;right=0;editable=1;overflow=hidden;whiteSpace=wrap;html=1;" vertex="1" parent="-6jkyIE3yQVWvQFI4JW6-90">
          <mxGeometry width="30" height="30" as="geometry">
            <mxRectangle width="30" height="30" as="alternateBounds" />
          </mxGeometry>
        </mxCell>
        <mxCell id="-6jkyIE3yQVWvQFI4JW6-92" value="Date" style="shape=partialRectangle;connectable=0;fillColor=none;top=0;left=0;bottom=0;right=0;align=left;spacingLeft=6;overflow=hidden;whiteSpace=wrap;html=1;" vertex="1" parent="-6jkyIE3yQVWvQFI4JW6-90">
          <mxGeometry x="30" width="150" height="30" as="geometry">
            <mxRectangle width="150" height="30" as="alternateBounds" />
          </mxGeometry>
        </mxCell>
        <mxCell id="-6jkyIE3yQVWvQFI4JW6-93" value="" style="shape=tableRow;horizontal=0;startSize=0;swimlaneHead=0;swimlaneBody=0;fillColor=none;collapsible=0;dropTarget=0;points=[[0,0.5],[1,0.5]];portConstraint=eastwest;top=0;left=0;right=0;bottom=0;" vertex="1" parent="-6jkyIE3yQVWvQFI4JW6-86">
          <mxGeometry y="90" width="180" height="30" as="geometry" />
        </mxCell>
        <mxCell id="-6jkyIE3yQVWvQFI4JW6-94" value="" style="shape=partialRectangle;connectable=0;fillColor=none;top=0;left=0;bottom=0;right=0;editable=1;overflow=hidden;whiteSpace=wrap;html=1;" vertex="1" parent="-6jkyIE3yQVWvQFI4JW6-93">
          <mxGeometry width="30" height="30" as="geometry">
            <mxRectangle width="30" height="30" as="alternateBounds" />
          </mxGeometry>
        </mxCell>
        <mxCell id="-6jkyIE3yQVWvQFI4JW6-95" value="Price" style="shape=partialRectangle;connectable=0;fillColor=none;top=0;left=0;bottom=0;right=0;align=left;spacingLeft=6;overflow=hidden;whiteSpace=wrap;html=1;" vertex="1" parent="-6jkyIE3yQVWvQFI4JW6-93">
          <mxGeometry x="30" width="150" height="30" as="geometry">
            <mxRectangle width="150" height="30" as="alternateBounds" />
          </mxGeometry>
        </mxCell>
        <mxCell id="-6jkyIE3yQVWvQFI4JW6-96" value="" style="shape=tableRow;horizontal=0;startSize=0;swimlaneHead=0;swimlaneBody=0;fillColor=none;collapsible=0;dropTarget=0;points=[[0,0.5],[1,0.5]];portConstraint=eastwest;top=0;left=0;right=0;bottom=0;" vertex="1" parent="-6jkyIE3yQVWvQFI4JW6-86">
          <mxGeometry y="120" width="180" height="30" as="geometry" />
        </mxCell>
        <mxCell id="-6jkyIE3yQVWvQFI4JW6-97" value="" style="shape=partialRectangle;connectable=0;fillColor=none;top=0;left=0;bottom=0;right=0;editable=1;overflow=hidden;whiteSpace=wrap;html=1;" vertex="1" parent="-6jkyIE3yQVWvQFI4JW6-96">
          <mxGeometry width="30" height="30" as="geometry">
            <mxRectangle width="30" height="30" as="alternateBounds" />
          </mxGeometry>
        </mxCell>
        <mxCell id="-6jkyIE3yQVWvQFI4JW6-98" value="Currency" style="shape=partialRectangle;connectable=0;fillColor=none;top=0;left=0;bottom=0;right=0;align=left;spacingLeft=6;overflow=hidden;whiteSpace=wrap;html=1;" vertex="1" parent="-6jkyIE3yQVWvQFI4JW6-96">
          <mxGeometry x="30" width="150" height="30" as="geometry">
            <mxRectangle width="150" height="30" as="alternateBounds" />
          </mxGeometry>
        </mxCell>
        <mxCell id="-6jkyIE3yQVWvQFI4JW6-125" value="" style="shape=tableRow;horizontal=0;startSize=0;swimlaneHead=0;swimlaneBody=0;fillColor=none;collapsible=0;dropTarget=0;points=[[0,0.5],[1,0.5]];portConstraint=eastwest;top=0;left=0;right=0;bottom=0;" vertex="1" parent="-6jkyIE3yQVWvQFI4JW6-86">
          <mxGeometry y="150" width="180" height="30" as="geometry" />
        </mxCell>
        <mxCell id="-6jkyIE3yQVWvQFI4JW6-126" value="" style="shape=partialRectangle;connectable=0;fillColor=none;top=0;left=0;bottom=0;right=0;editable=1;overflow=hidden;whiteSpace=wrap;html=1;" vertex="1" parent="-6jkyIE3yQVWvQFI4JW6-125">
          <mxGeometry width="30" height="30" as="geometry">
            <mxRectangle width="30" height="30" as="alternateBounds" />
          </mxGeometry>
        </mxCell>
        <mxCell id="-6jkyIE3yQVWvQFI4JW6-127" value="Sales office" style="shape=partialRectangle;connectable=0;fillColor=none;top=0;left=0;bottom=0;right=0;align=left;spacingLeft=6;overflow=hidden;whiteSpace=wrap;html=1;" vertex="1" parent="-6jkyIE3yQVWvQFI4JW6-125">
          <mxGeometry x="30" width="150" height="30" as="geometry">
            <mxRectangle width="150" height="30" as="alternateBounds" />
          </mxGeometry>
        </mxCell>
        <mxCell id="-6jkyIE3yQVWvQFI4JW6-99" value="BOARDING_PASS" style="shape=table;startSize=30;container=1;collapsible=1;childLayout=tableLayout;fixedRows=1;rowLines=0;fontStyle=1;align=center;resizeLast=1;html=1;" vertex="1" parent="1">
          <mxGeometry x="540" y="940" width="180" height="210" as="geometry" />
        </mxCell>
        <mxCell id="-6jkyIE3yQVWvQFI4JW6-100" value="" style="shape=tableRow;horizontal=0;startSize=0;swimlaneHead=0;swimlaneBody=0;fillColor=none;collapsible=0;dropTarget=0;points=[[0,0.5],[1,0.5]];portConstraint=eastwest;top=0;left=0;right=0;bottom=1;" vertex="1" parent="-6jkyIE3yQVWvQFI4JW6-99">
          <mxGeometry y="30" width="180" height="30" as="geometry" />
        </mxCell>
        <mxCell id="-6jkyIE3yQVWvQFI4JW6-101" value="PK" style="shape=partialRectangle;connectable=0;fillColor=none;top=0;left=0;bottom=0;right=0;fontStyle=1;overflow=hidden;whiteSpace=wrap;html=1;" vertex="1" parent="-6jkyIE3yQVWvQFI4JW6-100">
          <mxGeometry width="30" height="30" as="geometry">
            <mxRectangle width="30" height="30" as="alternateBounds" />
          </mxGeometry>
        </mxCell>
        <mxCell id="-6jkyIE3yQVWvQFI4JW6-102" value="BP-No" style="shape=partialRectangle;connectable=0;fillColor=none;top=0;left=0;bottom=0;right=0;align=left;spacingLeft=6;fontStyle=5;overflow=hidden;whiteSpace=wrap;html=1;" vertex="1" parent="-6jkyIE3yQVWvQFI4JW6-100">
          <mxGeometry x="30" width="150" height="30" as="geometry">
            <mxRectangle width="150" height="30" as="alternateBounds" />
          </mxGeometry>
        </mxCell>
        <mxCell id="-6jkyIE3yQVWvQFI4JW6-103" value="" style="shape=tableRow;horizontal=0;startSize=0;swimlaneHead=0;swimlaneBody=0;fillColor=none;collapsible=0;dropTarget=0;points=[[0,0.5],[1,0.5]];portConstraint=eastwest;top=0;left=0;right=0;bottom=0;" vertex="1" parent="-6jkyIE3yQVWvQFI4JW6-99">
          <mxGeometry y="60" width="180" height="30" as="geometry" />
        </mxCell>
        <mxCell id="-6jkyIE3yQVWvQFI4JW6-104" value="" style="shape=partialRectangle;connectable=0;fillColor=none;top=0;left=0;bottom=0;right=0;editable=1;overflow=hidden;whiteSpace=wrap;html=1;" vertex="1" parent="-6jkyIE3yQVWvQFI4JW6-103">
          <mxGeometry width="30" height="30" as="geometry">
            <mxRectangle width="30" height="30" as="alternateBounds" />
          </mxGeometry>
        </mxCell>
        <mxCell id="-6jkyIE3yQVWvQFI4JW6-105" value="Flight Number" style="shape=partialRectangle;connectable=0;fillColor=none;top=0;left=0;bottom=0;right=0;align=left;spacingLeft=6;overflow=hidden;whiteSpace=wrap;html=1;" vertex="1" parent="-6jkyIE3yQVWvQFI4JW6-103">
          <mxGeometry x="30" width="150" height="30" as="geometry">
            <mxRectangle width="150" height="30" as="alternateBounds" />
          </mxGeometry>
        </mxCell>
        <mxCell id="-6jkyIE3yQVWvQFI4JW6-106" value="" style="shape=tableRow;horizontal=0;startSize=0;swimlaneHead=0;swimlaneBody=0;fillColor=none;collapsible=0;dropTarget=0;points=[[0,0.5],[1,0.5]];portConstraint=eastwest;top=0;left=0;right=0;bottom=0;" vertex="1" parent="-6jkyIE3yQVWvQFI4JW6-99">
          <mxGeometry y="90" width="180" height="30" as="geometry" />
        </mxCell>
        <mxCell id="-6jkyIE3yQVWvQFI4JW6-107" value="" style="shape=partialRectangle;connectable=0;fillColor=none;top=0;left=0;bottom=0;right=0;editable=1;overflow=hidden;whiteSpace=wrap;html=1;" vertex="1" parent="-6jkyIE3yQVWvQFI4JW6-106">
          <mxGeometry width="30" height="30" as="geometry">
            <mxRectangle width="30" height="30" as="alternateBounds" />
          </mxGeometry>
        </mxCell>
        <mxCell id="-6jkyIE3yQVWvQFI4JW6-108" value="Date" style="shape=partialRectangle;connectable=0;fillColor=none;top=0;left=0;bottom=0;right=0;align=left;spacingLeft=6;overflow=hidden;whiteSpace=wrap;html=1;" vertex="1" parent="-6jkyIE3yQVWvQFI4JW6-106">
          <mxGeometry x="30" width="150" height="30" as="geometry">
            <mxRectangle width="150" height="30" as="alternateBounds" />
          </mxGeometry>
        </mxCell>
        <mxCell id="-6jkyIE3yQVWvQFI4JW6-109" value="" style="shape=tableRow;horizontal=0;startSize=0;swimlaneHead=0;swimlaneBody=0;fillColor=none;collapsible=0;dropTarget=0;points=[[0,0.5],[1,0.5]];portConstraint=eastwest;top=0;left=0;right=0;bottom=0;" vertex="1" parent="-6jkyIE3yQVWvQFI4JW6-99">
          <mxGeometry y="120" width="180" height="30" as="geometry" />
        </mxCell>
        <mxCell id="-6jkyIE3yQVWvQFI4JW6-110" value="" style="shape=partialRectangle;connectable=0;fillColor=none;top=0;left=0;bottom=0;right=0;editable=1;overflow=hidden;whiteSpace=wrap;html=1;" vertex="1" parent="-6jkyIE3yQVWvQFI4JW6-109">
          <mxGeometry width="30" height="30" as="geometry">
            <mxRectangle width="30" height="30" as="alternateBounds" />
          </mxGeometry>
        </mxCell>
        <mxCell id="-6jkyIE3yQVWvQFI4JW6-111" value="Departure Airport" style="shape=partialRectangle;connectable=0;fillColor=none;top=0;left=0;bottom=0;right=0;align=left;spacingLeft=6;overflow=hidden;whiteSpace=wrap;html=1;" vertex="1" parent="-6jkyIE3yQVWvQFI4JW6-109">
          <mxGeometry x="30" width="150" height="30" as="geometry">
            <mxRectangle width="150" height="30" as="alternateBounds" />
          </mxGeometry>
        </mxCell>
        <mxCell id="-6jkyIE3yQVWvQFI4JW6-128" value="" style="shape=tableRow;horizontal=0;startSize=0;swimlaneHead=0;swimlaneBody=0;fillColor=none;collapsible=0;dropTarget=0;points=[[0,0.5],[1,0.5]];portConstraint=eastwest;top=0;left=0;right=0;bottom=0;" vertex="1" parent="-6jkyIE3yQVWvQFI4JW6-99">
          <mxGeometry y="150" width="180" height="30" as="geometry" />
        </mxCell>
        <mxCell id="-6jkyIE3yQVWvQFI4JW6-129" value="" style="shape=partialRectangle;connectable=0;fillColor=none;top=0;left=0;bottom=0;right=0;editable=1;overflow=hidden;whiteSpace=wrap;html=1;" vertex="1" parent="-6jkyIE3yQVWvQFI4JW6-128">
          <mxGeometry width="30" height="30" as="geometry">
            <mxRectangle width="30" height="30" as="alternateBounds" />
          </mxGeometry>
        </mxCell>
        <mxCell id="-6jkyIE3yQVWvQFI4JW6-130" value="Name of passenger" style="shape=partialRectangle;connectable=0;fillColor=none;top=0;left=0;bottom=0;right=0;align=left;spacingLeft=6;overflow=hidden;whiteSpace=wrap;html=1;" vertex="1" parent="-6jkyIE3yQVWvQFI4JW6-128">
          <mxGeometry x="30" width="150" height="30" as="geometry">
            <mxRectangle width="150" height="30" as="alternateBounds" />
          </mxGeometry>
        </mxCell>
        <mxCell id="-6jkyIE3yQVWvQFI4JW6-131" value="" style="shape=tableRow;horizontal=0;startSize=0;swimlaneHead=0;swimlaneBody=0;fillColor=none;collapsible=0;dropTarget=0;points=[[0,0.5],[1,0.5]];portConstraint=eastwest;top=0;left=0;right=0;bottom=0;" vertex="1" parent="-6jkyIE3yQVWvQFI4JW6-99">
          <mxGeometry y="180" width="180" height="30" as="geometry" />
        </mxCell>
        <mxCell id="-6jkyIE3yQVWvQFI4JW6-132" value="" style="shape=partialRectangle;connectable=0;fillColor=none;top=0;left=0;bottom=0;right=0;editable=1;overflow=hidden;whiteSpace=wrap;html=1;" vertex="1" parent="-6jkyIE3yQVWvQFI4JW6-131">
          <mxGeometry width="30" height="30" as="geometry">
            <mxRectangle width="30" height="30" as="alternateBounds" />
          </mxGeometry>
        </mxCell>
        <mxCell id="-6jkyIE3yQVWvQFI4JW6-133" value="Row" style="shape=partialRectangle;connectable=0;fillColor=none;top=0;left=0;bottom=0;right=0;align=left;spacingLeft=6;overflow=hidden;whiteSpace=wrap;html=1;" vertex="1" parent="-6jkyIE3yQVWvQFI4JW6-131">
          <mxGeometry x="30" width="150" height="30" as="geometry">
            <mxRectangle width="150" height="30" as="alternateBounds" />
          </mxGeometry>
        </mxCell>
        <mxCell id="-6jkyIE3yQVWvQFI4JW6-112" value="SEAT" style="shape=table;startSize=30;container=1;collapsible=1;childLayout=tableLayout;fixedRows=1;rowLines=0;fontStyle=1;align=center;resizeLast=1;html=1;" vertex="1" parent="1">
          <mxGeometry x="780" y="940" width="180" height="150" as="geometry" />
        </mxCell>
        <mxCell id="-6jkyIE3yQVWvQFI4JW6-113" value="" style="shape=tableRow;horizontal=0;startSize=0;swimlaneHead=0;swimlaneBody=0;fillColor=none;collapsible=0;dropTarget=0;points=[[0,0.5],[1,0.5]];portConstraint=eastwest;top=0;left=0;right=0;bottom=1;" vertex="1" parent="-6jkyIE3yQVWvQFI4JW6-112">
          <mxGeometry y="30" width="180" height="30" as="geometry" />
        </mxCell>
        <mxCell id="-6jkyIE3yQVWvQFI4JW6-114" value="PK" style="shape=partialRectangle;connectable=0;fillColor=none;top=0;left=0;bottom=0;right=0;fontStyle=1;overflow=hidden;whiteSpace=wrap;html=1;" vertex="1" parent="-6jkyIE3yQVWvQFI4JW6-113">
          <mxGeometry width="30" height="30" as="geometry">
            <mxRectangle width="30" height="30" as="alternateBounds" />
          </mxGeometry>
        </mxCell>
        <mxCell id="-6jkyIE3yQVWvQFI4JW6-115" value="UniqueID" style="shape=partialRectangle;connectable=0;fillColor=none;top=0;left=0;bottom=0;right=0;align=left;spacingLeft=6;fontStyle=5;overflow=hidden;whiteSpace=wrap;html=1;" vertex="1" parent="-6jkyIE3yQVWvQFI4JW6-113">
          <mxGeometry x="30" width="150" height="30" as="geometry">
            <mxRectangle width="150" height="30" as="alternateBounds" />
          </mxGeometry>
        </mxCell>
        <mxCell id="-6jkyIE3yQVWvQFI4JW6-116" value="" style="shape=tableRow;horizontal=0;startSize=0;swimlaneHead=0;swimlaneBody=0;fillColor=none;collapsible=0;dropTarget=0;points=[[0,0.5],[1,0.5]];portConstraint=eastwest;top=0;left=0;right=0;bottom=0;" vertex="1" parent="-6jkyIE3yQVWvQFI4JW6-112">
          <mxGeometry y="60" width="180" height="30" as="geometry" />
        </mxCell>
        <mxCell id="-6jkyIE3yQVWvQFI4JW6-117" value="" style="shape=partialRectangle;connectable=0;fillColor=none;top=0;left=0;bottom=0;right=0;editable=1;overflow=hidden;whiteSpace=wrap;html=1;" vertex="1" parent="-6jkyIE3yQVWvQFI4JW6-116">
          <mxGeometry width="30" height="30" as="geometry">
            <mxRectangle width="30" height="30" as="alternateBounds" />
          </mxGeometry>
        </mxCell>
        <mxCell id="-6jkyIE3yQVWvQFI4JW6-118" value="Number" style="shape=partialRectangle;connectable=0;fillColor=none;top=0;left=0;bottom=0;right=0;align=left;spacingLeft=6;overflow=hidden;whiteSpace=wrap;html=1;" vertex="1" parent="-6jkyIE3yQVWvQFI4JW6-116">
          <mxGeometry x="30" width="150" height="30" as="geometry">
            <mxRectangle width="150" height="30" as="alternateBounds" />
          </mxGeometry>
        </mxCell>
        <mxCell id="-6jkyIE3yQVWvQFI4JW6-119" value="" style="shape=tableRow;horizontal=0;startSize=0;swimlaneHead=0;swimlaneBody=0;fillColor=none;collapsible=0;dropTarget=0;points=[[0,0.5],[1,0.5]];portConstraint=eastwest;top=0;left=0;right=0;bottom=0;" vertex="1" parent="-6jkyIE3yQVWvQFI4JW6-112">
          <mxGeometry y="90" width="180" height="30" as="geometry" />
        </mxCell>
        <mxCell id="-6jkyIE3yQVWvQFI4JW6-120" value="" style="shape=partialRectangle;connectable=0;fillColor=none;top=0;left=0;bottom=0;right=0;editable=1;overflow=hidden;whiteSpace=wrap;html=1;" vertex="1" parent="-6jkyIE3yQVWvQFI4JW6-119">
          <mxGeometry width="30" height="30" as="geometry">
            <mxRectangle width="30" height="30" as="alternateBounds" />
          </mxGeometry>
        </mxCell>
        <mxCell id="-6jkyIE3yQVWvQFI4JW6-121" value="Row 2" style="shape=partialRectangle;connectable=0;fillColor=none;top=0;left=0;bottom=0;right=0;align=left;spacingLeft=6;overflow=hidden;whiteSpace=wrap;html=1;" vertex="1" parent="-6jkyIE3yQVWvQFI4JW6-119">
          <mxGeometry x="30" width="150" height="30" as="geometry">
            <mxRectangle width="150" height="30" as="alternateBounds" />
          </mxGeometry>
        </mxCell>
        <mxCell id="-6jkyIE3yQVWvQFI4JW6-122" value="" style="shape=tableRow;horizontal=0;startSize=0;swimlaneHead=0;swimlaneBody=0;fillColor=none;collapsible=0;dropTarget=0;points=[[0,0.5],[1,0.5]];portConstraint=eastwest;top=0;left=0;right=0;bottom=0;" vertex="1" parent="-6jkyIE3yQVWvQFI4JW6-112">
          <mxGeometry y="120" width="180" height="30" as="geometry" />
        </mxCell>
        <mxCell id="-6jkyIE3yQVWvQFI4JW6-123" value="" style="shape=partialRectangle;connectable=0;fillColor=none;top=0;left=0;bottom=0;right=0;editable=1;overflow=hidden;whiteSpace=wrap;html=1;" vertex="1" parent="-6jkyIE3yQVWvQFI4JW6-122">
          <mxGeometry width="30" height="30" as="geometry">
            <mxRectangle width="30" height="30" as="alternateBounds" />
          </mxGeometry>
        </mxCell>
        <mxCell id="-6jkyIE3yQVWvQFI4JW6-124" value="Row 3" style="shape=partialRectangle;connectable=0;fillColor=none;top=0;left=0;bottom=0;right=0;align=left;spacingLeft=6;overflow=hidden;whiteSpace=wrap;html=1;" vertex="1" parent="-6jkyIE3yQVWvQFI4JW6-122">
          <mxGeometry x="30" width="150" height="30" as="geometry">
            <mxRectangle width="150" height="30" as="alternateBounds" />
          </mxGeometry>
        </mxCell>
        <mxCell id="-6jkyIE3yQVWvQFI4JW6-134" value="" style="edgeStyle=none;orthogonalLoop=1;jettySize=auto;html=1;rounded=0;" edge="1" parent="1">
          <mxGeometry width="80" relative="1" as="geometry">
            <mxPoint x="680" y="340" as="sourcePoint" />
            <mxPoint x="760" y="340" as="targetPoint" />
            <Array as="points" />
          </mxGeometry>
        </mxCell>
        <mxCell id="-6jkyIE3yQVWvQFI4JW6-135" value="ORIGIN" style="shape=table;startSize=30;container=1;collapsible=1;childLayout=tableLayout;fixedRows=1;rowLines=0;fontStyle=1;align=center;resizeLast=1;html=1;" vertex="1" parent="1">
          <mxGeometry x="50" y="940" width="180" height="150" as="geometry" />
        </mxCell>
        <mxCell id="-6jkyIE3yQVWvQFI4JW6-136" value="" style="shape=tableRow;horizontal=0;startSize=0;swimlaneHead=0;swimlaneBody=0;fillColor=none;collapsible=0;dropTarget=0;points=[[0,0.5],[1,0.5]];portConstraint=eastwest;top=0;left=0;right=0;bottom=1;" vertex="1" parent="-6jkyIE3yQVWvQFI4JW6-135">
          <mxGeometry y="30" width="180" height="30" as="geometry" />
        </mxCell>
        <mxCell id="-6jkyIE3yQVWvQFI4JW6-137" value="PK" style="shape=partialRectangle;connectable=0;fillColor=none;top=0;left=0;bottom=0;right=0;fontStyle=1;overflow=hidden;whiteSpace=wrap;html=1;" vertex="1" parent="-6jkyIE3yQVWvQFI4JW6-136">
          <mxGeometry width="30" height="30" as="geometry">
            <mxRectangle width="30" height="30" as="alternateBounds" />
          </mxGeometry>
        </mxCell>
        <mxCell id="-6jkyIE3yQVWvQFI4JW6-138" value="UniqueID" style="shape=partialRectangle;connectable=0;fillColor=none;top=0;left=0;bottom=0;right=0;align=left;spacingLeft=6;fontStyle=5;overflow=hidden;whiteSpace=wrap;html=1;" vertex="1" parent="-6jkyIE3yQVWvQFI4JW6-136">
          <mxGeometry x="30" width="150" height="30" as="geometry">
            <mxRectangle width="150" height="30" as="alternateBounds" />
          </mxGeometry>
        </mxCell>
        <mxCell id="-6jkyIE3yQVWvQFI4JW6-139" value="" style="shape=tableRow;horizontal=0;startSize=0;swimlaneHead=0;swimlaneBody=0;fillColor=none;collapsible=0;dropTarget=0;points=[[0,0.5],[1,0.5]];portConstraint=eastwest;top=0;left=0;right=0;bottom=0;" vertex="1" parent="-6jkyIE3yQVWvQFI4JW6-135">
          <mxGeometry y="60" width="180" height="30" as="geometry" />
        </mxCell>
        <mxCell id="-6jkyIE3yQVWvQFI4JW6-140" value="" style="shape=partialRectangle;connectable=0;fillColor=none;top=0;left=0;bottom=0;right=0;editable=1;overflow=hidden;whiteSpace=wrap;html=1;" vertex="1" parent="-6jkyIE3yQVWvQFI4JW6-139">
          <mxGeometry width="30" height="30" as="geometry">
            <mxRectangle width="30" height="30" as="alternateBounds" />
          </mxGeometry>
        </mxCell>
        <mxCell id="-6jkyIE3yQVWvQFI4JW6-141" value="Number" style="shape=partialRectangle;connectable=0;fillColor=none;top=0;left=0;bottom=0;right=0;align=left;spacingLeft=6;overflow=hidden;whiteSpace=wrap;html=1;" vertex="1" parent="-6jkyIE3yQVWvQFI4JW6-139">
          <mxGeometry x="30" width="150" height="30" as="geometry">
            <mxRectangle width="150" height="30" as="alternateBounds" />
          </mxGeometry>
        </mxCell>
        <mxCell id="-6jkyIE3yQVWvQFI4JW6-142" value="" style="shape=tableRow;horizontal=0;startSize=0;swimlaneHead=0;swimlaneBody=0;fillColor=none;collapsible=0;dropTarget=0;points=[[0,0.5],[1,0.5]];portConstraint=eastwest;top=0;left=0;right=0;bottom=0;" vertex="1" parent="-6jkyIE3yQVWvQFI4JW6-135">
          <mxGeometry y="90" width="180" height="30" as="geometry" />
        </mxCell>
        <mxCell id="-6jkyIE3yQVWvQFI4JW6-143" value="" style="shape=partialRectangle;connectable=0;fillColor=none;top=0;left=0;bottom=0;right=0;editable=1;overflow=hidden;whiteSpace=wrap;html=1;" vertex="1" parent="-6jkyIE3yQVWvQFI4JW6-142">
          <mxGeometry width="30" height="30" as="geometry">
            <mxRectangle width="30" height="30" as="alternateBounds" />
          </mxGeometry>
        </mxCell>
        <mxCell id="-6jkyIE3yQVWvQFI4JW6-144" value="Row 2" style="shape=partialRectangle;connectable=0;fillColor=none;top=0;left=0;bottom=0;right=0;align=left;spacingLeft=6;overflow=hidden;whiteSpace=wrap;html=1;" vertex="1" parent="-6jkyIE3yQVWvQFI4JW6-142">
          <mxGeometry x="30" width="150" height="30" as="geometry">
            <mxRectangle width="150" height="30" as="alternateBounds" />
          </mxGeometry>
        </mxCell>
        <mxCell id="-6jkyIE3yQVWvQFI4JW6-145" value="" style="shape=tableRow;horizontal=0;startSize=0;swimlaneHead=0;swimlaneBody=0;fillColor=none;collapsible=0;dropTarget=0;points=[[0,0.5],[1,0.5]];portConstraint=eastwest;top=0;left=0;right=0;bottom=0;" vertex="1" parent="-6jkyIE3yQVWvQFI4JW6-135">
          <mxGeometry y="120" width="180" height="30" as="geometry" />
        </mxCell>
        <mxCell id="-6jkyIE3yQVWvQFI4JW6-146" value="" style="shape=partialRectangle;connectable=0;fillColor=none;top=0;left=0;bottom=0;right=0;editable=1;overflow=hidden;whiteSpace=wrap;html=1;" vertex="1" parent="-6jkyIE3yQVWvQFI4JW6-145">
          <mxGeometry width="30" height="30" as="geometry">
            <mxRectangle width="30" height="30" as="alternateBounds" />
          </mxGeometry>
        </mxCell>
        <mxCell id="-6jkyIE3yQVWvQFI4JW6-147" value="Row 3" style="shape=partialRectangle;connectable=0;fillColor=none;top=0;left=0;bottom=0;right=0;align=left;spacingLeft=6;overflow=hidden;whiteSpace=wrap;html=1;" vertex="1" parent="-6jkyIE3yQVWvQFI4JW6-145">
          <mxGeometry x="30" width="150" height="30" as="geometry">
            <mxRectangle width="150" height="30" as="alternateBounds" />
          </mxGeometry>
        </mxCell>
        <mxCell id="-6jkyIE3yQVWvQFI4JW6-148" value="DESTINATION" style="shape=table;startSize=30;container=1;collapsible=1;childLayout=tableLayout;fixedRows=1;rowLines=0;fontStyle=1;align=center;resizeLast=1;html=1;" vertex="1" parent="1">
          <mxGeometry x="300" y="940" width="180" height="150" as="geometry" />
        </mxCell>
        <mxCell id="-6jkyIE3yQVWvQFI4JW6-149" value="" style="shape=tableRow;horizontal=0;startSize=0;swimlaneHead=0;swimlaneBody=0;fillColor=none;collapsible=0;dropTarget=0;points=[[0,0.5],[1,0.5]];portConstraint=eastwest;top=0;left=0;right=0;bottom=1;" vertex="1" parent="-6jkyIE3yQVWvQFI4JW6-148">
          <mxGeometry y="30" width="180" height="30" as="geometry" />
        </mxCell>
        <mxCell id="-6jkyIE3yQVWvQFI4JW6-150" value="PK" style="shape=partialRectangle;connectable=0;fillColor=none;top=0;left=0;bottom=0;right=0;fontStyle=1;overflow=hidden;whiteSpace=wrap;html=1;" vertex="1" parent="-6jkyIE3yQVWvQFI4JW6-149">
          <mxGeometry width="30" height="30" as="geometry">
            <mxRectangle width="30" height="30" as="alternateBounds" />
          </mxGeometry>
        </mxCell>
        <mxCell id="-6jkyIE3yQVWvQFI4JW6-151" value="UniqueID" style="shape=partialRectangle;connectable=0;fillColor=none;top=0;left=0;bottom=0;right=0;align=left;spacingLeft=6;fontStyle=5;overflow=hidden;whiteSpace=wrap;html=1;" vertex="1" parent="-6jkyIE3yQVWvQFI4JW6-149">
          <mxGeometry x="30" width="150" height="30" as="geometry">
            <mxRectangle width="150" height="30" as="alternateBounds" />
          </mxGeometry>
        </mxCell>
        <mxCell id="-6jkyIE3yQVWvQFI4JW6-152" value="" style="shape=tableRow;horizontal=0;startSize=0;swimlaneHead=0;swimlaneBody=0;fillColor=none;collapsible=0;dropTarget=0;points=[[0,0.5],[1,0.5]];portConstraint=eastwest;top=0;left=0;right=0;bottom=0;" vertex="1" parent="-6jkyIE3yQVWvQFI4JW6-148">
          <mxGeometry y="60" width="180" height="30" as="geometry" />
        </mxCell>
        <mxCell id="-6jkyIE3yQVWvQFI4JW6-153" value="" style="shape=partialRectangle;connectable=0;fillColor=none;top=0;left=0;bottom=0;right=0;editable=1;overflow=hidden;whiteSpace=wrap;html=1;" vertex="1" parent="-6jkyIE3yQVWvQFI4JW6-152">
          <mxGeometry width="30" height="30" as="geometry">
            <mxRectangle width="30" height="30" as="alternateBounds" />
          </mxGeometry>
        </mxCell>
        <mxCell id="-6jkyIE3yQVWvQFI4JW6-154" value="Number" style="shape=partialRectangle;connectable=0;fillColor=none;top=0;left=0;bottom=0;right=0;align=left;spacingLeft=6;overflow=hidden;whiteSpace=wrap;html=1;" vertex="1" parent="-6jkyIE3yQVWvQFI4JW6-152">
          <mxGeometry x="30" width="150" height="30" as="geometry">
            <mxRectangle width="150" height="30" as="alternateBounds" />
          </mxGeometry>
        </mxCell>
        <mxCell id="-6jkyIE3yQVWvQFI4JW6-155" value="" style="shape=tableRow;horizontal=0;startSize=0;swimlaneHead=0;swimlaneBody=0;fillColor=none;collapsible=0;dropTarget=0;points=[[0,0.5],[1,0.5]];portConstraint=eastwest;top=0;left=0;right=0;bottom=0;" vertex="1" parent="-6jkyIE3yQVWvQFI4JW6-148">
          <mxGeometry y="90" width="180" height="30" as="geometry" />
        </mxCell>
        <mxCell id="-6jkyIE3yQVWvQFI4JW6-156" value="" style="shape=partialRectangle;connectable=0;fillColor=none;top=0;left=0;bottom=0;right=0;editable=1;overflow=hidden;whiteSpace=wrap;html=1;" vertex="1" parent="-6jkyIE3yQVWvQFI4JW6-155">
          <mxGeometry width="30" height="30" as="geometry">
            <mxRectangle width="30" height="30" as="alternateBounds" />
          </mxGeometry>
        </mxCell>
        <mxCell id="-6jkyIE3yQVWvQFI4JW6-157" value="Row 2" style="shape=partialRectangle;connectable=0;fillColor=none;top=0;left=0;bottom=0;right=0;align=left;spacingLeft=6;overflow=hidden;whiteSpace=wrap;html=1;" vertex="1" parent="-6jkyIE3yQVWvQFI4JW6-155">
          <mxGeometry x="30" width="150" height="30" as="geometry">
            <mxRectangle width="150" height="30" as="alternateBounds" />
          </mxGeometry>
        </mxCell>
        <mxCell id="-6jkyIE3yQVWvQFI4JW6-158" value="" style="shape=tableRow;horizontal=0;startSize=0;swimlaneHead=0;swimlaneBody=0;fillColor=none;collapsible=0;dropTarget=0;points=[[0,0.5],[1,0.5]];portConstraint=eastwest;top=0;left=0;right=0;bottom=0;" vertex="1" parent="-6jkyIE3yQVWvQFI4JW6-148">
          <mxGeometry y="120" width="180" height="30" as="geometry" />
        </mxCell>
        <mxCell id="-6jkyIE3yQVWvQFI4JW6-159" value="" style="shape=partialRectangle;connectable=0;fillColor=none;top=0;left=0;bottom=0;right=0;editable=1;overflow=hidden;whiteSpace=wrap;html=1;" vertex="1" parent="-6jkyIE3yQVWvQFI4JW6-158">
          <mxGeometry width="30" height="30" as="geometry">
            <mxRectangle width="30" height="30" as="alternateBounds" />
          </mxGeometry>
        </mxCell>
        <mxCell id="-6jkyIE3yQVWvQFI4JW6-160" value="Row 3" style="shape=partialRectangle;connectable=0;fillColor=none;top=0;left=0;bottom=0;right=0;align=left;spacingLeft=6;overflow=hidden;whiteSpace=wrap;html=1;" vertex="1" parent="-6jkyIE3yQVWvQFI4JW6-158">
          <mxGeometry x="30" width="150" height="30" as="geometry">
            <mxRectangle width="150" height="30" as="alternateBounds" />
          </mxGeometry>
        </mxCell>
        <mxCell id="-6jkyIE3yQVWvQFI4JW6-161" value="PASSENGER" style="rounded=0;whiteSpace=wrap;html=1;" vertex="1" parent="1">
          <mxGeometry x="100" y="1530" width="120" height="60" as="geometry" />
        </mxCell>
        <mxCell id="-6jkyIE3yQVWvQFI4JW6-192" style="edgeStyle=none;shape=connector;rounded=0;orthogonalLoop=1;jettySize=auto;html=1;exitX=1;exitY=0.5;exitDx=0;exitDy=0;entryX=0.5;entryY=0;entryDx=0;entryDy=0;strokeColor=default;align=center;verticalAlign=middle;fontFamily=Helvetica;fontSize=11;fontColor=default;labelBackgroundColor=default;endArrow=none;" edge="1" parent="1" source="-6jkyIE3yQVWvQFI4JW6-162" target="-6jkyIE3yQVWvQFI4JW6-188">
          <mxGeometry relative="1" as="geometry">
            <Array as="points">
              <mxPoint x="660" y="1370" />
            </Array>
          </mxGeometry>
        </mxCell>
        <mxCell id="-6jkyIE3yQVWvQFI4JW6-162" value="ORIGIN" style="rounded=0;whiteSpace=wrap;html=1;" vertex="1" parent="1">
          <mxGeometry x="440" y="1340" width="120" height="60" as="geometry" />
        </mxCell>
        <mxCell id="-6jkyIE3yQVWvQFI4JW6-190" style="edgeStyle=none;shape=connector;rounded=0;orthogonalLoop=1;jettySize=auto;html=1;exitX=1;exitY=0.5;exitDx=0;exitDy=0;entryX=0.5;entryY=1;entryDx=0;entryDy=0;strokeColor=default;align=center;verticalAlign=middle;fontFamily=Helvetica;fontSize=11;fontColor=default;labelBackgroundColor=default;endArrow=none;" edge="1" parent="1" source="-6jkyIE3yQVWvQFI4JW6-163" target="-6jkyIE3yQVWvQFI4JW6-189">
          <mxGeometry relative="1" as="geometry">
            <Array as="points">
              <mxPoint x="660" y="1754" />
            </Array>
          </mxGeometry>
        </mxCell>
        <mxCell id="-6jkyIE3yQVWvQFI4JW6-163" value="DESTINATION" style="rounded=0;whiteSpace=wrap;html=1;" vertex="1" parent="1">
          <mxGeometry x="440" y="1724" width="120" height="60" as="geometry" />
        </mxCell>
        <mxCell id="-6jkyIE3yQVWvQFI4JW6-172" style="edgeStyle=none;shape=connector;rounded=0;orthogonalLoop=1;jettySize=auto;html=1;exitX=0.5;exitY=0;exitDx=0;exitDy=0;entryX=0.5;entryY=1;entryDx=0;entryDy=0;strokeColor=default;align=center;verticalAlign=middle;fontFamily=Helvetica;fontSize=11;fontColor=default;labelBackgroundColor=default;endArrow=none;" edge="1" parent="1" source="-6jkyIE3yQVWvQFI4JW6-203" target="-6jkyIE3yQVWvQFI4JW6-162">
          <mxGeometry relative="1" as="geometry" />
        </mxCell>
        <mxCell id="-6jkyIE3yQVWvQFI4JW6-173" style="edgeStyle=none;shape=connector;rounded=0;orthogonalLoop=1;jettySize=auto;html=1;exitX=0.5;exitY=1;exitDx=0;exitDy=0;entryX=0.5;entryY=0;entryDx=0;entryDy=0;strokeColor=default;align=center;verticalAlign=middle;fontFamily=Helvetica;fontSize=11;fontColor=default;labelBackgroundColor=default;endArrow=none;" edge="1" parent="1" source="-6jkyIE3yQVWvQFI4JW6-205" target="-6jkyIE3yQVWvQFI4JW6-163">
          <mxGeometry relative="1" as="geometry" />
        </mxCell>
        <mxCell id="-6jkyIE3yQVWvQFI4JW6-174" style="edgeStyle=none;shape=connector;rounded=0;orthogonalLoop=1;jettySize=auto;html=1;exitX=0.5;exitY=0;exitDx=0;exitDy=0;entryX=0;entryY=0.75;entryDx=0;entryDy=0;strokeColor=default;align=center;verticalAlign=middle;fontFamily=Helvetica;fontSize=11;fontColor=default;labelBackgroundColor=default;endArrow=none;" edge="1" parent="1" source="-6jkyIE3yQVWvQFI4JW6-189" target="-6jkyIE3yQVWvQFI4JW6-165">
          <mxGeometry relative="1" as="geometry">
            <Array as="points">
              <mxPoint x="660" y="1575" />
            </Array>
          </mxGeometry>
        </mxCell>
        <mxCell id="-6jkyIE3yQVWvQFI4JW6-164" value="AIRPORT" style="rounded=0;whiteSpace=wrap;html=1;" vertex="1" parent="1">
          <mxGeometry x="440" y="1530" width="120" height="60" as="geometry" />
        </mxCell>
        <mxCell id="-6jkyIE3yQVWvQFI4JW6-175" style="edgeStyle=none;shape=connector;rounded=0;orthogonalLoop=1;jettySize=auto;html=1;exitX=0.5;exitY=0;exitDx=0;exitDy=0;entryX=0.5;entryY=1;entryDx=0;entryDy=0;strokeColor=default;align=center;verticalAlign=middle;fontFamily=Helvetica;fontSize=11;fontColor=default;labelBackgroundColor=default;endArrow=none;" edge="1" parent="1" source="-6jkyIE3yQVWvQFI4JW6-195" target="-6jkyIE3yQVWvQFI4JW6-169">
          <mxGeometry relative="1" as="geometry" />
        </mxCell>
        <mxCell id="-6jkyIE3yQVWvQFI4JW6-177" style="edgeStyle=none;shape=connector;rounded=0;orthogonalLoop=1;jettySize=auto;html=1;exitX=0.5;exitY=1;exitDx=0;exitDy=0;entryX=0.5;entryY=0;entryDx=0;entryDy=0;strokeColor=default;align=center;verticalAlign=middle;fontFamily=Helvetica;fontSize=11;fontColor=default;labelBackgroundColor=default;endArrow=none;" edge="1" parent="1" source="-6jkyIE3yQVWvQFI4JW6-197" target="-6jkyIE3yQVWvQFI4JW6-167">
          <mxGeometry relative="1" as="geometry" />
        </mxCell>
        <mxCell id="-6jkyIE3yQVWvQFI4JW6-207" style="edgeStyle=none;shape=connector;rounded=0;orthogonalLoop=1;jettySize=auto;html=1;exitX=1;exitY=0.5;exitDx=0;exitDy=0;entryX=0;entryY=0.5;entryDx=0;entryDy=0;strokeColor=default;align=center;verticalAlign=middle;fontFamily=Helvetica;fontSize=11;fontColor=default;labelBackgroundColor=default;endArrow=none;" edge="1" parent="1" source="-6jkyIE3yQVWvQFI4JW6-209" target="-6jkyIE3yQVWvQFI4JW6-206">
          <mxGeometry relative="1" as="geometry" />
        </mxCell>
        <mxCell id="-6jkyIE3yQVWvQFI4JW6-165" value="AIRLINE" style="rounded=0;whiteSpace=wrap;html=1;" vertex="1" parent="1">
          <mxGeometry x="760" y="1530" width="120" height="60" as="geometry" />
        </mxCell>
        <mxCell id="-6jkyIE3yQVWvQFI4JW6-182" style="edgeStyle=none;shape=connector;rounded=0;orthogonalLoop=1;jettySize=auto;html=1;exitX=0.5;exitY=0;exitDx=0;exitDy=0;entryX=0.5;entryY=1;entryDx=0;entryDy=0;strokeColor=default;align=center;verticalAlign=middle;fontFamily=Helvetica;fontSize=11;fontColor=default;labelBackgroundColor=default;endArrow=none;" edge="1" parent="1" source="-6jkyIE3yQVWvQFI4JW6-201" target="-6jkyIE3yQVWvQFI4JW6-168">
          <mxGeometry relative="1" as="geometry" />
        </mxCell>
        <mxCell id="-6jkyIE3yQVWvQFI4JW6-166" value="BOARDING_PASS" style="rounded=0;whiteSpace=wrap;html=1;" vertex="1" parent="1">
          <mxGeometry x="1320" y="1724" width="120" height="60" as="geometry" />
        </mxCell>
        <mxCell id="-6jkyIE3yQVWvQFI4JW6-181" style="edgeStyle=none;shape=connector;rounded=0;orthogonalLoop=1;jettySize=auto;html=1;exitX=1;exitY=0.5;exitDx=0;exitDy=0;entryX=0;entryY=0.5;entryDx=0;entryDy=0;strokeColor=default;align=center;verticalAlign=middle;fontFamily=Helvetica;fontSize=11;fontColor=default;labelBackgroundColor=default;endArrow=none;" edge="1" parent="1" source="-6jkyIE3yQVWvQFI4JW6-199" target="-6jkyIE3yQVWvQFI4JW6-166">
          <mxGeometry relative="1" as="geometry" />
        </mxCell>
        <mxCell id="-6jkyIE3yQVWvQFI4JW6-167" value="TICKET" style="rounded=0;whiteSpace=wrap;html=1;" vertex="1" parent="1">
          <mxGeometry x="760" y="1724" width="120" height="60" as="geometry" />
        </mxCell>
        <mxCell id="-6jkyIE3yQVWvQFI4JW6-168" value="SEAT" style="rounded=0;whiteSpace=wrap;html=1;" vertex="1" parent="1">
          <mxGeometry x="1320" y="1530" width="120" height="60" as="geometry" />
        </mxCell>
        <mxCell id="-6jkyIE3yQVWvQFI4JW6-176" style="edgeStyle=none;shape=connector;rounded=0;orthogonalLoop=1;jettySize=auto;html=1;exitX=1;exitY=0.5;exitDx=0;exitDy=0;entryX=0;entryY=0.5;entryDx=0;entryDy=0;strokeColor=default;align=center;verticalAlign=middle;fontFamily=Helvetica;fontSize=11;fontColor=default;labelBackgroundColor=default;endArrow=none;" edge="1" parent="1" source="-6jkyIE3yQVWvQFI4JW6-169" target="-6jkyIE3yQVWvQFI4JW6-170">
          <mxGeometry relative="1" as="geometry" />
        </mxCell>
        <mxCell id="-6jkyIE3yQVWvQFI4JW6-169" value="AIRCRAFT" style="rounded=0;whiteSpace=wrap;html=1;" vertex="1" parent="1">
          <mxGeometry x="760" y="1340" width="120" height="60" as="geometry" />
        </mxCell>
        <mxCell id="-6jkyIE3yQVWvQFI4JW6-170" value="TYPE" style="rounded=0;whiteSpace=wrap;html=1;" vertex="1" parent="1">
          <mxGeometry x="1320" y="1340" width="120" height="60" as="geometry" />
        </mxCell>
        <mxCell id="-6jkyIE3yQVWvQFI4JW6-171" value="" style="endArrow=none;html=1;rounded=0;exitX=0.5;exitY=0;exitDx=0;exitDy=0;entryX=0;entryY=0.5;entryDx=0;entryDy=0;" edge="1" parent="1" source="-6jkyIE3yQVWvQFI4JW6-184" target="-6jkyIE3yQVWvQFI4JW6-162">
          <mxGeometry width="50" height="50" relative="1" as="geometry">
            <mxPoint x="240" y="1570" as="sourcePoint" />
            <mxPoint x="290" y="1520" as="targetPoint" />
            <Array as="points">
              <mxPoint x="320" y="1370" />
            </Array>
          </mxGeometry>
        </mxCell>
        <mxCell id="-6jkyIE3yQVWvQFI4JW6-183" value="" style="endArrow=none;html=1;rounded=0;exitX=1;exitY=0.25;exitDx=0;exitDy=0;entryX=0.5;entryY=1;entryDx=0;entryDy=0;" edge="1" parent="1" source="-6jkyIE3yQVWvQFI4JW6-161" target="-6jkyIE3yQVWvQFI4JW6-184">
          <mxGeometry width="50" height="50" relative="1" as="geometry">
            <mxPoint x="180" y="1545" as="sourcePoint" />
            <mxPoint x="440" y="1370" as="targetPoint" />
            <Array as="points">
              <mxPoint x="320" y="1545" />
            </Array>
          </mxGeometry>
        </mxCell>
        <mxCell id="-6jkyIE3yQVWvQFI4JW6-184" value="wants&lt;div&gt;to&lt;/div&gt;&lt;div&gt;fly from&lt;/div&gt;" style="rhombus;whiteSpace=wrap;html=1;fontFamily=Helvetica;fontSize=11;fontColor=default;labelBackgroundColor=default;" vertex="1" parent="1">
          <mxGeometry x="280" y="1410" width="80" height="80" as="geometry" />
        </mxCell>
        <mxCell id="-6jkyIE3yQVWvQFI4JW6-185" value="" style="edgeStyle=none;shape=connector;rounded=0;orthogonalLoop=1;jettySize=auto;html=1;exitX=1;exitY=0.75;exitDx=0;exitDy=0;entryX=0.5;entryY=0;entryDx=0;entryDy=0;strokeColor=default;align=center;verticalAlign=middle;fontFamily=Helvetica;fontSize=11;fontColor=default;labelBackgroundColor=default;endArrow=none;" edge="1" parent="1" source="-6jkyIE3yQVWvQFI4JW6-161" target="-6jkyIE3yQVWvQFI4JW6-186">
          <mxGeometry relative="1" as="geometry">
            <mxPoint x="180" y="1575" as="sourcePoint" />
            <mxPoint x="440" y="1754" as="targetPoint" />
            <Array as="points">
              <mxPoint x="320" y="1575" />
            </Array>
          </mxGeometry>
        </mxCell>
        <mxCell id="-6jkyIE3yQVWvQFI4JW6-187" style="edgeStyle=none;shape=connector;rounded=0;orthogonalLoop=1;jettySize=auto;html=1;exitX=0.5;exitY=1;exitDx=0;exitDy=0;entryX=0;entryY=0.5;entryDx=0;entryDy=0;strokeColor=default;align=center;verticalAlign=middle;fontFamily=Helvetica;fontSize=11;fontColor=default;labelBackgroundColor=default;endArrow=none;" edge="1" parent="1" source="-6jkyIE3yQVWvQFI4JW6-186" target="-6jkyIE3yQVWvQFI4JW6-163">
          <mxGeometry relative="1" as="geometry">
            <Array as="points">
              <mxPoint x="320" y="1754" />
            </Array>
          </mxGeometry>
        </mxCell>
        <mxCell id="-6jkyIE3yQVWvQFI4JW6-186" value="wants&lt;div&gt;to&lt;/div&gt;&lt;div&gt;fly to&lt;/div&gt;" style="rhombus;whiteSpace=wrap;html=1;fontFamily=Helvetica;fontSize=11;fontColor=default;labelBackgroundColor=default;" vertex="1" parent="1">
          <mxGeometry x="280" y="1620" width="80" height="80" as="geometry" />
        </mxCell>
        <mxCell id="-6jkyIE3yQVWvQFI4JW6-191" style="edgeStyle=none;shape=connector;rounded=0;orthogonalLoop=1;jettySize=auto;html=1;exitX=0.5;exitY=1;exitDx=0;exitDy=0;entryX=0;entryY=0.25;entryDx=0;entryDy=0;strokeColor=default;align=center;verticalAlign=middle;fontFamily=Helvetica;fontSize=11;fontColor=default;labelBackgroundColor=default;endArrow=none;" edge="1" parent="1" source="-6jkyIE3yQVWvQFI4JW6-188" target="-6jkyIE3yQVWvQFI4JW6-165">
          <mxGeometry relative="1" as="geometry">
            <Array as="points">
              <mxPoint x="660" y="1545" />
            </Array>
          </mxGeometry>
        </mxCell>
        <mxCell id="-6jkyIE3yQVWvQFI4JW6-188" value="flies from" style="rhombus;whiteSpace=wrap;html=1;fontFamily=Helvetica;fontSize=11;fontColor=default;labelBackgroundColor=default;" vertex="1" parent="1">
          <mxGeometry x="620" y="1410" width="80" height="80" as="geometry" />
        </mxCell>
        <mxCell id="-6jkyIE3yQVWvQFI4JW6-189" value="flies to" style="rhombus;whiteSpace=wrap;html=1;fontFamily=Helvetica;fontSize=11;fontColor=default;labelBackgroundColor=default;" vertex="1" parent="1">
          <mxGeometry x="620" y="1620" width="80" height="80" as="geometry" />
        </mxCell>
        <mxCell id="-6jkyIE3yQVWvQFI4JW6-193" value="" style="rhombus;whiteSpace=wrap;html=1;fontFamily=Helvetica;fontSize=11;fontColor=default;labelBackgroundColor=default;" vertex="1" parent="1">
          <mxGeometry x="1070" y="1330" width="80" height="80" as="geometry" />
        </mxCell>
        <mxCell id="-6jkyIE3yQVWvQFI4JW6-194" value="" style="edgeStyle=none;shape=connector;rounded=0;orthogonalLoop=1;jettySize=auto;html=1;exitX=0.5;exitY=0;exitDx=0;exitDy=0;entryX=0.5;entryY=1;entryDx=0;entryDy=0;strokeColor=default;align=center;verticalAlign=middle;fontFamily=Helvetica;fontSize=11;fontColor=default;labelBackgroundColor=default;endArrow=none;" edge="1" parent="1" source="-6jkyIE3yQVWvQFI4JW6-165" target="-6jkyIE3yQVWvQFI4JW6-195">
          <mxGeometry relative="1" as="geometry">
            <mxPoint x="820" y="1530" as="sourcePoint" />
            <mxPoint x="820" y="1400" as="targetPoint" />
          </mxGeometry>
        </mxCell>
        <mxCell id="-6jkyIE3yQVWvQFI4JW6-195" value="" style="rhombus;whiteSpace=wrap;html=1;fontFamily=Helvetica;fontSize=11;fontColor=default;labelBackgroundColor=default;" vertex="1" parent="1">
          <mxGeometry x="780" y="1420" width="80" height="80" as="geometry" />
        </mxCell>
        <mxCell id="-6jkyIE3yQVWvQFI4JW6-196" value="" style="edgeStyle=none;shape=connector;rounded=0;orthogonalLoop=1;jettySize=auto;html=1;exitX=0.5;exitY=1;exitDx=0;exitDy=0;entryX=0.5;entryY=0;entryDx=0;entryDy=0;strokeColor=default;align=center;verticalAlign=middle;fontFamily=Helvetica;fontSize=11;fontColor=default;labelBackgroundColor=default;endArrow=none;" edge="1" parent="1" source="-6jkyIE3yQVWvQFI4JW6-165" target="-6jkyIE3yQVWvQFI4JW6-197">
          <mxGeometry relative="1" as="geometry">
            <mxPoint x="820" y="1590" as="sourcePoint" />
            <mxPoint x="820" y="1724" as="targetPoint" />
          </mxGeometry>
        </mxCell>
        <mxCell id="-6jkyIE3yQVWvQFI4JW6-197" value="" style="rhombus;whiteSpace=wrap;html=1;fontFamily=Helvetica;fontSize=11;fontColor=default;labelBackgroundColor=default;" vertex="1" parent="1">
          <mxGeometry x="780" y="1620" width="80" height="80" as="geometry" />
        </mxCell>
        <mxCell id="-6jkyIE3yQVWvQFI4JW6-198" value="" style="edgeStyle=none;shape=connector;rounded=0;orthogonalLoop=1;jettySize=auto;html=1;exitX=1;exitY=0.5;exitDx=0;exitDy=0;entryX=0;entryY=0.5;entryDx=0;entryDy=0;strokeColor=default;align=center;verticalAlign=middle;fontFamily=Helvetica;fontSize=11;fontColor=default;labelBackgroundColor=default;endArrow=none;" edge="1" parent="1" source="-6jkyIE3yQVWvQFI4JW6-167" target="-6jkyIE3yQVWvQFI4JW6-199">
          <mxGeometry relative="1" as="geometry">
            <mxPoint x="880" y="1754" as="sourcePoint" />
            <mxPoint x="1080" y="1754" as="targetPoint" />
          </mxGeometry>
        </mxCell>
        <mxCell id="-6jkyIE3yQVWvQFI4JW6-199" value="" style="rhombus;whiteSpace=wrap;html=1;fontFamily=Helvetica;fontSize=11;fontColor=default;labelBackgroundColor=default;" vertex="1" parent="1">
          <mxGeometry x="1070" y="1714" width="80" height="80" as="geometry" />
        </mxCell>
        <mxCell id="-6jkyIE3yQVWvQFI4JW6-200" value="" style="edgeStyle=none;shape=connector;rounded=0;orthogonalLoop=1;jettySize=auto;html=1;exitX=0.5;exitY=0;exitDx=0;exitDy=0;entryX=0.5;entryY=1;entryDx=0;entryDy=0;strokeColor=default;align=center;verticalAlign=middle;fontFamily=Helvetica;fontSize=11;fontColor=default;labelBackgroundColor=default;endArrow=none;" edge="1" parent="1" source="-6jkyIE3yQVWvQFI4JW6-166" target="-6jkyIE3yQVWvQFI4JW6-201">
          <mxGeometry relative="1" as="geometry">
            <mxPoint x="1380" y="1724" as="sourcePoint" />
            <mxPoint x="1380" y="1590" as="targetPoint" />
          </mxGeometry>
        </mxCell>
        <mxCell id="-6jkyIE3yQVWvQFI4JW6-201" value="" style="rhombus;whiteSpace=wrap;html=1;fontFamily=Helvetica;fontSize=11;fontColor=default;labelBackgroundColor=default;" vertex="1" parent="1">
          <mxGeometry x="1340" y="1620" width="80" height="80" as="geometry" />
        </mxCell>
        <mxCell id="-6jkyIE3yQVWvQFI4JW6-202" value="" style="edgeStyle=none;shape=connector;rounded=0;orthogonalLoop=1;jettySize=auto;html=1;exitX=0.5;exitY=0;exitDx=0;exitDy=0;entryX=0.5;entryY=1;entryDx=0;entryDy=0;strokeColor=default;align=center;verticalAlign=middle;fontFamily=Helvetica;fontSize=11;fontColor=default;labelBackgroundColor=default;endArrow=none;" edge="1" parent="1" source="-6jkyIE3yQVWvQFI4JW6-164" target="-6jkyIE3yQVWvQFI4JW6-203">
          <mxGeometry relative="1" as="geometry">
            <mxPoint x="500" y="1530" as="sourcePoint" />
            <mxPoint x="500" y="1400" as="targetPoint" />
          </mxGeometry>
        </mxCell>
        <mxCell id="-6jkyIE3yQVWvQFI4JW6-203" value="" style="rhombus;whiteSpace=wrap;html=1;fontFamily=Helvetica;fontSize=11;fontColor=default;labelBackgroundColor=default;" vertex="1" parent="1">
          <mxGeometry x="460" y="1420" width="80" height="80" as="geometry" />
        </mxCell>
        <mxCell id="-6jkyIE3yQVWvQFI4JW6-204" value="" style="edgeStyle=none;shape=connector;rounded=0;orthogonalLoop=1;jettySize=auto;html=1;exitX=0.5;exitY=1;exitDx=0;exitDy=0;entryX=0.5;entryY=0;entryDx=0;entryDy=0;strokeColor=default;align=center;verticalAlign=middle;fontFamily=Helvetica;fontSize=11;fontColor=default;labelBackgroundColor=default;endArrow=none;" edge="1" parent="1" source="-6jkyIE3yQVWvQFI4JW6-164" target="-6jkyIE3yQVWvQFI4JW6-205">
          <mxGeometry relative="1" as="geometry">
            <mxPoint x="500" y="1590" as="sourcePoint" />
            <mxPoint x="500" y="1724" as="targetPoint" />
          </mxGeometry>
        </mxCell>
        <mxCell id="-6jkyIE3yQVWvQFI4JW6-205" value="" style="rhombus;whiteSpace=wrap;html=1;fontFamily=Helvetica;fontSize=11;fontColor=default;labelBackgroundColor=default;" vertex="1" parent="1">
          <mxGeometry x="460" y="1620" width="80" height="80" as="geometry" />
        </mxCell>
        <mxCell id="-6jkyIE3yQVWvQFI4JW6-206" value="SCHEDULE" style="rounded=0;whiteSpace=wrap;html=1;fontFamily=Helvetica;fontSize=11;fontColor=default;labelBackgroundColor=default;" vertex="1" parent="1">
          <mxGeometry x="1050" y="1530" width="120" height="60" as="geometry" />
        </mxCell>
        <mxCell id="-6jkyIE3yQVWvQFI4JW6-208" value="" style="edgeStyle=none;shape=connector;rounded=0;orthogonalLoop=1;jettySize=auto;html=1;exitX=1;exitY=0.5;exitDx=0;exitDy=0;entryX=0;entryY=0.5;entryDx=0;entryDy=0;strokeColor=default;align=center;verticalAlign=middle;fontFamily=Helvetica;fontSize=11;fontColor=default;labelBackgroundColor=default;endArrow=none;" edge="1" parent="1" source="-6jkyIE3yQVWvQFI4JW6-165" target="-6jkyIE3yQVWvQFI4JW6-209">
          <mxGeometry relative="1" as="geometry">
            <mxPoint x="880" y="1560" as="sourcePoint" />
            <mxPoint x="1050" y="1560" as="targetPoint" />
          </mxGeometry>
        </mxCell>
        <mxCell id="-6jkyIE3yQVWvQFI4JW6-209" value="" style="rhombus;whiteSpace=wrap;html=1;fontFamily=Helvetica;fontSize=11;fontColor=default;labelBackgroundColor=default;" vertex="1" parent="1">
          <mxGeometry x="930" y="1520" width="80" height="80" as="geometry" />
        </mxCell>
        <mxCell id="-6jkyIE3yQVWvQFI4JW6-213" value="V1" style="text;html=1;align=center;verticalAlign=middle;resizable=0;points=[];autosize=1;strokeColor=none;fillColor=none;fontFamily=Helvetica;fontSize=11;fontColor=default;labelBackgroundColor=default;" vertex="1" parent="1">
          <mxGeometry x="120" y="1258" width="40" height="30" as="geometry" />
        </mxCell>
        <mxCell id="-6jkyIE3yQVWvQFI4JW6-214" value="PASSENGER" style="rounded=0;whiteSpace=wrap;html=1;" vertex="1" parent="1">
          <mxGeometry x="100" y="2282" width="120" height="60" as="geometry" />
        </mxCell>
        <mxCell id="-6jkyIE3yQVWvQFI4JW6-215" style="edgeStyle=none;shape=connector;rounded=0;orthogonalLoop=1;jettySize=auto;html=1;exitX=1;exitY=0.25;exitDx=0;exitDy=0;entryX=0.5;entryY=0;entryDx=0;entryDy=0;strokeColor=default;align=center;verticalAlign=middle;fontFamily=Helvetica;fontSize=11;fontColor=default;labelBackgroundColor=default;endArrow=none;" edge="1" source="-6jkyIE3yQVWvQFI4JW6-216" target="-6jkyIE3yQVWvQFI4JW6-242" parent="1">
          <mxGeometry relative="1" as="geometry">
            <mxPoint x="660" y="2107" as="sourcePoint" />
            <Array as="points">
              <mxPoint x="1215" y="2107" />
            </Array>
          </mxGeometry>
        </mxCell>
        <mxCell id="-6jkyIE3yQVWvQFI4JW6-216" value="ORIGIN" style="rounded=0;whiteSpace=wrap;html=1;" vertex="1" parent="1">
          <mxGeometry x="440" y="2092" width="120" height="60" as="geometry" />
        </mxCell>
        <mxCell id="-6jkyIE3yQVWvQFI4JW6-217" style="edgeStyle=none;shape=connector;rounded=0;orthogonalLoop=1;jettySize=auto;html=1;exitX=1;exitY=0.75;exitDx=0;exitDy=0;entryX=0.5;entryY=1;entryDx=0;entryDy=0;strokeColor=default;align=center;verticalAlign=middle;fontFamily=Helvetica;fontSize=11;fontColor=default;labelBackgroundColor=default;endArrow=none;" edge="1" source="-6jkyIE3yQVWvQFI4JW6-218" target="-6jkyIE3yQVWvQFI4JW6-243" parent="1">
          <mxGeometry relative="1" as="geometry">
            <mxPoint x="660" y="2521" as="sourcePoint" />
            <Array as="points">
              <mxPoint x="1215" y="2520" />
            </Array>
          </mxGeometry>
        </mxCell>
        <mxCell id="-6jkyIE3yQVWvQFI4JW6-218" value="DESTINATION" style="rounded=0;whiteSpace=wrap;html=1;" vertex="1" parent="1">
          <mxGeometry x="440" y="2476" width="120" height="60" as="geometry" />
        </mxCell>
        <mxCell id="-6jkyIE3yQVWvQFI4JW6-219" style="edgeStyle=none;shape=connector;rounded=0;orthogonalLoop=1;jettySize=auto;html=1;exitX=0.5;exitY=0;exitDx=0;exitDy=0;entryX=0.5;entryY=1;entryDx=0;entryDy=0;strokeColor=default;align=center;verticalAlign=middle;fontFamily=Helvetica;fontSize=11;fontColor=default;labelBackgroundColor=default;endArrow=none;" edge="1" source="-6jkyIE3yQVWvQFI4JW6-254" target="-6jkyIE3yQVWvQFI4JW6-216" parent="1">
          <mxGeometry relative="1" as="geometry" />
        </mxCell>
        <mxCell id="-6jkyIE3yQVWvQFI4JW6-220" style="edgeStyle=none;shape=connector;rounded=0;orthogonalLoop=1;jettySize=auto;html=1;exitX=0.5;exitY=1;exitDx=0;exitDy=0;entryX=0.5;entryY=0;entryDx=0;entryDy=0;strokeColor=default;align=center;verticalAlign=middle;fontFamily=Helvetica;fontSize=11;fontColor=default;labelBackgroundColor=default;endArrow=none;" edge="1" source="-6jkyIE3yQVWvQFI4JW6-256" target="-6jkyIE3yQVWvQFI4JW6-218" parent="1">
          <mxGeometry relative="1" as="geometry" />
        </mxCell>
        <mxCell id="-6jkyIE3yQVWvQFI4JW6-221" style="edgeStyle=none;shape=connector;rounded=0;orthogonalLoop=1;jettySize=auto;html=1;exitX=0.5;exitY=0;exitDx=0;exitDy=0;entryX=0;entryY=0.75;entryDx=0;entryDy=0;strokeColor=default;align=center;verticalAlign=middle;fontFamily=Helvetica;fontSize=11;fontColor=default;labelBackgroundColor=default;endArrow=none;" edge="1" source="-6jkyIE3yQVWvQFI4JW6-243" target="-6jkyIE3yQVWvQFI4JW6-226" parent="1">
          <mxGeometry relative="1" as="geometry">
            <Array as="points">
              <mxPoint x="1215" y="2325" />
            </Array>
          </mxGeometry>
        </mxCell>
        <mxCell id="-6jkyIE3yQVWvQFI4JW6-222" value="AIRPORT" style="rounded=0;whiteSpace=wrap;html=1;" vertex="1" parent="1">
          <mxGeometry x="440" y="2282" width="120" height="60" as="geometry" />
        </mxCell>
        <mxCell id="-6jkyIE3yQVWvQFI4JW6-224" style="edgeStyle=none;shape=connector;rounded=0;orthogonalLoop=1;jettySize=auto;html=1;exitX=0.5;exitY=1;exitDx=0;exitDy=0;entryX=0.5;entryY=0;entryDx=0;entryDy=0;strokeColor=default;align=center;verticalAlign=middle;fontFamily=Helvetica;fontSize=11;fontColor=default;labelBackgroundColor=default;endArrow=none;" edge="1" source="-6jkyIE3yQVWvQFI4JW6-248" target="-6jkyIE3yQVWvQFI4JW6-230" parent="1">
          <mxGeometry relative="1" as="geometry" />
        </mxCell>
        <mxCell id="-6jkyIE3yQVWvQFI4JW6-225" style="edgeStyle=none;shape=connector;rounded=0;orthogonalLoop=1;jettySize=auto;html=1;exitX=1;exitY=0.5;exitDx=0;exitDy=0;entryX=0;entryY=0.5;entryDx=0;entryDy=0;strokeColor=default;align=center;verticalAlign=middle;fontFamily=Helvetica;fontSize=11;fontColor=default;labelBackgroundColor=default;endArrow=none;" edge="1" source="-6jkyIE3yQVWvQFI4JW6-259" target="-6jkyIE3yQVWvQFI4JW6-257" parent="1">
          <mxGeometry relative="1" as="geometry" />
        </mxCell>
        <mxCell id="-6jkyIE3yQVWvQFI4JW6-226" value="AIRLINE" style="rounded=0;whiteSpace=wrap;html=1;" vertex="1" parent="1">
          <mxGeometry x="1315" y="2280" width="120" height="60" as="geometry" />
        </mxCell>
        <mxCell id="-6jkyIE3yQVWvQFI4JW6-227" style="edgeStyle=none;shape=connector;rounded=0;orthogonalLoop=1;jettySize=auto;html=1;exitX=0.5;exitY=0;exitDx=0;exitDy=0;entryX=0.5;entryY=1;entryDx=0;entryDy=0;strokeColor=default;align=center;verticalAlign=middle;fontFamily=Helvetica;fontSize=11;fontColor=default;labelBackgroundColor=default;endArrow=none;" edge="1" source="-6jkyIE3yQVWvQFI4JW6-252" target="-6jkyIE3yQVWvQFI4JW6-231" parent="1">
          <mxGeometry relative="1" as="geometry" />
        </mxCell>
        <mxCell id="-6jkyIE3yQVWvQFI4JW6-228" value="BOARDING_PASS" style="rounded=0;whiteSpace=wrap;html=1;" vertex="1" parent="1">
          <mxGeometry x="1875" y="2474" width="120" height="60" as="geometry" />
        </mxCell>
        <mxCell id="-6jkyIE3yQVWvQFI4JW6-229" style="edgeStyle=none;shape=connector;rounded=0;orthogonalLoop=1;jettySize=auto;html=1;exitX=1;exitY=0.5;exitDx=0;exitDy=0;entryX=0;entryY=0.5;entryDx=0;entryDy=0;strokeColor=default;align=center;verticalAlign=middle;fontFamily=Helvetica;fontSize=11;fontColor=default;labelBackgroundColor=default;endArrow=none;" edge="1" source="-6jkyIE3yQVWvQFI4JW6-250" target="-6jkyIE3yQVWvQFI4JW6-228" parent="1">
          <mxGeometry relative="1" as="geometry" />
        </mxCell>
        <mxCell id="-6jkyIE3yQVWvQFI4JW6-230" value="TICKET" style="rounded=0;whiteSpace=wrap;html=1;" vertex="1" parent="1">
          <mxGeometry x="1315" y="2474" width="120" height="60" as="geometry" />
        </mxCell>
        <mxCell id="-6jkyIE3yQVWvQFI4JW6-231" value="SEAT" style="rounded=0;whiteSpace=wrap;html=1;" vertex="1" parent="1">
          <mxGeometry x="1875" y="2280" width="120" height="60" as="geometry" />
        </mxCell>
        <mxCell id="-6jkyIE3yQVWvQFI4JW6-261" style="edgeStyle=none;shape=connector;rounded=0;orthogonalLoop=1;jettySize=auto;html=1;exitX=1;exitY=0.5;exitDx=0;exitDy=0;entryX=0;entryY=0.5;entryDx=0;entryDy=0;strokeColor=default;align=center;verticalAlign=middle;fontFamily=Helvetica;fontSize=11;fontColor=default;labelBackgroundColor=default;endArrow=none;" edge="1" parent="1" source="-6jkyIE3yQVWvQFI4JW6-265" target="-6jkyIE3yQVWvQFI4JW6-226">
          <mxGeometry relative="1" as="geometry" />
        </mxCell>
        <mxCell id="-6jkyIE3yQVWvQFI4JW6-267" style="edgeStyle=none;shape=connector;rounded=0;orthogonalLoop=1;jettySize=auto;html=1;exitX=0.5;exitY=0;exitDx=0;exitDy=0;entryX=0.5;entryY=1;entryDx=0;entryDy=0;strokeColor=default;align=center;verticalAlign=middle;fontFamily=Helvetica;fontSize=11;fontColor=default;labelBackgroundColor=default;endArrow=none;" edge="1" parent="1" source="-6jkyIE3yQVWvQFI4JW6-233" target="-6jkyIE3yQVWvQFI4JW6-262">
          <mxGeometry relative="1" as="geometry" />
        </mxCell>
        <mxCell id="-6jkyIE3yQVWvQFI4JW6-268" style="edgeStyle=none;shape=connector;rounded=0;orthogonalLoop=1;jettySize=auto;html=1;exitX=0.5;exitY=1;exitDx=0;exitDy=0;entryX=0.5;entryY=0;entryDx=0;entryDy=0;strokeColor=default;align=center;verticalAlign=middle;fontFamily=Helvetica;fontSize=11;fontColor=default;labelBackgroundColor=default;endArrow=none;" edge="1" parent="1" source="-6jkyIE3yQVWvQFI4JW6-233" target="-6jkyIE3yQVWvQFI4JW6-263">
          <mxGeometry relative="1" as="geometry" />
        </mxCell>
        <mxCell id="-6jkyIE3yQVWvQFI4JW6-233" value="AIRCRAFT" style="rounded=0;whiteSpace=wrap;html=1;" vertex="1" parent="1">
          <mxGeometry x="905" y="2280" width="120" height="60" as="geometry" />
        </mxCell>
        <mxCell id="-6jkyIE3yQVWvQFI4JW6-234" value="TYPE" style="rounded=0;whiteSpace=wrap;html=1;" vertex="1" parent="1">
          <mxGeometry x="640" y="2280" width="120" height="60" as="geometry" />
        </mxCell>
        <mxCell id="-6jkyIE3yQVWvQFI4JW6-235" value="" style="endArrow=none;html=1;rounded=0;exitX=0.5;exitY=0;exitDx=0;exitDy=0;entryX=0;entryY=0.5;entryDx=0;entryDy=0;" edge="1" source="-6jkyIE3yQVWvQFI4JW6-237" target="-6jkyIE3yQVWvQFI4JW6-216" parent="1">
          <mxGeometry width="50" height="50" relative="1" as="geometry">
            <mxPoint x="240" y="2322" as="sourcePoint" />
            <mxPoint x="290" y="2272" as="targetPoint" />
            <Array as="points">
              <mxPoint x="320" y="2122" />
            </Array>
          </mxGeometry>
        </mxCell>
        <mxCell id="-6jkyIE3yQVWvQFI4JW6-236" value="" style="endArrow=none;html=1;rounded=0;exitX=1;exitY=0.25;exitDx=0;exitDy=0;entryX=0.5;entryY=1;entryDx=0;entryDy=0;" edge="1" source="-6jkyIE3yQVWvQFI4JW6-214" target="-6jkyIE3yQVWvQFI4JW6-237" parent="1">
          <mxGeometry width="50" height="50" relative="1" as="geometry">
            <mxPoint x="180" y="2297" as="sourcePoint" />
            <mxPoint x="440" y="2122" as="targetPoint" />
            <Array as="points">
              <mxPoint x="320" y="2297" />
            </Array>
          </mxGeometry>
        </mxCell>
        <mxCell id="-6jkyIE3yQVWvQFI4JW6-237" value="wants&lt;div&gt;to&lt;/div&gt;&lt;div&gt;fly from&lt;/div&gt;" style="rhombus;whiteSpace=wrap;html=1;fontFamily=Helvetica;fontSize=11;fontColor=default;labelBackgroundColor=default;" vertex="1" parent="1">
          <mxGeometry x="280" y="2162" width="80" height="80" as="geometry" />
        </mxCell>
        <mxCell id="-6jkyIE3yQVWvQFI4JW6-238" value="" style="edgeStyle=none;shape=connector;rounded=0;orthogonalLoop=1;jettySize=auto;html=1;exitX=1;exitY=0.75;exitDx=0;exitDy=0;entryX=0.5;entryY=0;entryDx=0;entryDy=0;strokeColor=default;align=center;verticalAlign=middle;fontFamily=Helvetica;fontSize=11;fontColor=default;labelBackgroundColor=default;endArrow=none;" edge="1" source="-6jkyIE3yQVWvQFI4JW6-214" target="-6jkyIE3yQVWvQFI4JW6-240" parent="1">
          <mxGeometry relative="1" as="geometry">
            <mxPoint x="180" y="2327" as="sourcePoint" />
            <mxPoint x="440" y="2506" as="targetPoint" />
            <Array as="points">
              <mxPoint x="320" y="2327" />
            </Array>
          </mxGeometry>
        </mxCell>
        <mxCell id="-6jkyIE3yQVWvQFI4JW6-239" style="edgeStyle=none;shape=connector;rounded=0;orthogonalLoop=1;jettySize=auto;html=1;exitX=0.5;exitY=1;exitDx=0;exitDy=0;entryX=0;entryY=0.5;entryDx=0;entryDy=0;strokeColor=default;align=center;verticalAlign=middle;fontFamily=Helvetica;fontSize=11;fontColor=default;labelBackgroundColor=default;endArrow=none;" edge="1" source="-6jkyIE3yQVWvQFI4JW6-240" target="-6jkyIE3yQVWvQFI4JW6-218" parent="1">
          <mxGeometry relative="1" as="geometry">
            <Array as="points">
              <mxPoint x="320" y="2506" />
            </Array>
          </mxGeometry>
        </mxCell>
        <mxCell id="-6jkyIE3yQVWvQFI4JW6-240" value="wants&lt;div&gt;to&lt;/div&gt;&lt;div&gt;fly to&lt;/div&gt;" style="rhombus;whiteSpace=wrap;html=1;fontFamily=Helvetica;fontSize=11;fontColor=default;labelBackgroundColor=default;" vertex="1" parent="1">
          <mxGeometry x="280" y="2372" width="80" height="80" as="geometry" />
        </mxCell>
        <mxCell id="-6jkyIE3yQVWvQFI4JW6-241" style="edgeStyle=none;shape=connector;rounded=0;orthogonalLoop=1;jettySize=auto;html=1;exitX=0.5;exitY=1;exitDx=0;exitDy=0;entryX=0;entryY=0.25;entryDx=0;entryDy=0;strokeColor=default;align=center;verticalAlign=middle;fontFamily=Helvetica;fontSize=11;fontColor=default;labelBackgroundColor=default;endArrow=none;" edge="1" source="-6jkyIE3yQVWvQFI4JW6-242" target="-6jkyIE3yQVWvQFI4JW6-226" parent="1">
          <mxGeometry relative="1" as="geometry">
            <Array as="points">
              <mxPoint x="1215" y="2295" />
            </Array>
          </mxGeometry>
        </mxCell>
        <mxCell id="-6jkyIE3yQVWvQFI4JW6-242" value="flies from" style="rhombus;whiteSpace=wrap;html=1;fontFamily=Helvetica;fontSize=11;fontColor=default;labelBackgroundColor=default;" vertex="1" parent="1">
          <mxGeometry x="1175" y="2160" width="80" height="80" as="geometry" />
        </mxCell>
        <mxCell id="-6jkyIE3yQVWvQFI4JW6-243" value="flies to" style="rhombus;whiteSpace=wrap;html=1;fontFamily=Helvetica;fontSize=11;fontColor=default;labelBackgroundColor=default;" vertex="1" parent="1">
          <mxGeometry x="1175" y="2370" width="80" height="80" as="geometry" />
        </mxCell>
        <mxCell id="-6jkyIE3yQVWvQFI4JW6-270" style="edgeStyle=none;shape=connector;rounded=0;orthogonalLoop=1;jettySize=auto;html=1;exitX=1;exitY=0.5;exitDx=0;exitDy=0;entryX=0;entryY=0.5;entryDx=0;entryDy=0;strokeColor=default;align=center;verticalAlign=middle;fontFamily=Helvetica;fontSize=11;fontColor=default;labelBackgroundColor=default;endArrow=none;" edge="1" parent="1" source="-6jkyIE3yQVWvQFI4JW6-244" target="-6jkyIE3yQVWvQFI4JW6-233">
          <mxGeometry relative="1" as="geometry" />
        </mxCell>
        <mxCell id="-6jkyIE3yQVWvQFI4JW6-271" style="edgeStyle=none;shape=connector;rounded=0;orthogonalLoop=1;jettySize=auto;html=1;exitX=0;exitY=0.5;exitDx=0;exitDy=0;entryX=1;entryY=0.5;entryDx=0;entryDy=0;strokeColor=default;align=center;verticalAlign=middle;fontFamily=Helvetica;fontSize=11;fontColor=default;labelBackgroundColor=default;endArrow=none;" edge="1" parent="1" source="-6jkyIE3yQVWvQFI4JW6-244" target="-6jkyIE3yQVWvQFI4JW6-234">
          <mxGeometry relative="1" as="geometry" />
        </mxCell>
        <mxCell id="-6jkyIE3yQVWvQFI4JW6-244" value="" style="rhombus;whiteSpace=wrap;html=1;fontFamily=Helvetica;fontSize=11;fontColor=default;labelBackgroundColor=default;" vertex="1" parent="1">
          <mxGeometry x="790" y="2270" width="80" height="80" as="geometry" />
        </mxCell>
        <mxCell id="-6jkyIE3yQVWvQFI4JW6-247" value="" style="edgeStyle=none;shape=connector;rounded=0;orthogonalLoop=1;jettySize=auto;html=1;exitX=0.5;exitY=1;exitDx=0;exitDy=0;entryX=0.5;entryY=0;entryDx=0;entryDy=0;strokeColor=default;align=center;verticalAlign=middle;fontFamily=Helvetica;fontSize=11;fontColor=default;labelBackgroundColor=default;endArrow=none;" edge="1" source="-6jkyIE3yQVWvQFI4JW6-226" target="-6jkyIE3yQVWvQFI4JW6-248" parent="1">
          <mxGeometry relative="1" as="geometry">
            <mxPoint x="1375" y="2340" as="sourcePoint" />
            <mxPoint x="1375" y="2474" as="targetPoint" />
          </mxGeometry>
        </mxCell>
        <mxCell id="-6jkyIE3yQVWvQFI4JW6-248" value="" style="rhombus;whiteSpace=wrap;html=1;fontFamily=Helvetica;fontSize=11;fontColor=default;labelBackgroundColor=default;" vertex="1" parent="1">
          <mxGeometry x="1335" y="2370" width="80" height="80" as="geometry" />
        </mxCell>
        <mxCell id="-6jkyIE3yQVWvQFI4JW6-249" value="" style="edgeStyle=none;shape=connector;rounded=0;orthogonalLoop=1;jettySize=auto;html=1;exitX=1;exitY=0.5;exitDx=0;exitDy=0;entryX=0;entryY=0.5;entryDx=0;entryDy=0;strokeColor=default;align=center;verticalAlign=middle;fontFamily=Helvetica;fontSize=11;fontColor=default;labelBackgroundColor=default;endArrow=none;" edge="1" source="-6jkyIE3yQVWvQFI4JW6-230" target="-6jkyIE3yQVWvQFI4JW6-250" parent="1">
          <mxGeometry relative="1" as="geometry">
            <mxPoint x="1435" y="2504" as="sourcePoint" />
            <mxPoint x="1635" y="2504" as="targetPoint" />
          </mxGeometry>
        </mxCell>
        <mxCell id="-6jkyIE3yQVWvQFI4JW6-250" value="" style="rhombus;whiteSpace=wrap;html=1;fontFamily=Helvetica;fontSize=11;fontColor=default;labelBackgroundColor=default;" vertex="1" parent="1">
          <mxGeometry x="1625" y="2464" width="80" height="80" as="geometry" />
        </mxCell>
        <mxCell id="-6jkyIE3yQVWvQFI4JW6-251" value="" style="edgeStyle=none;shape=connector;rounded=0;orthogonalLoop=1;jettySize=auto;html=1;exitX=0.5;exitY=0;exitDx=0;exitDy=0;entryX=0.5;entryY=1;entryDx=0;entryDy=0;strokeColor=default;align=center;verticalAlign=middle;fontFamily=Helvetica;fontSize=11;fontColor=default;labelBackgroundColor=default;endArrow=none;" edge="1" source="-6jkyIE3yQVWvQFI4JW6-228" target="-6jkyIE3yQVWvQFI4JW6-252" parent="1">
          <mxGeometry relative="1" as="geometry">
            <mxPoint x="1935" y="2474" as="sourcePoint" />
            <mxPoint x="1935" y="2340" as="targetPoint" />
          </mxGeometry>
        </mxCell>
        <mxCell id="-6jkyIE3yQVWvQFI4JW6-252" value="" style="rhombus;whiteSpace=wrap;html=1;fontFamily=Helvetica;fontSize=11;fontColor=default;labelBackgroundColor=default;" vertex="1" parent="1">
          <mxGeometry x="1895" y="2370" width="80" height="80" as="geometry" />
        </mxCell>
        <mxCell id="-6jkyIE3yQVWvQFI4JW6-253" value="" style="edgeStyle=none;shape=connector;rounded=0;orthogonalLoop=1;jettySize=auto;html=1;exitX=0.5;exitY=0;exitDx=0;exitDy=0;entryX=0.5;entryY=1;entryDx=0;entryDy=0;strokeColor=default;align=center;verticalAlign=middle;fontFamily=Helvetica;fontSize=11;fontColor=default;labelBackgroundColor=default;endArrow=none;" edge="1" source="-6jkyIE3yQVWvQFI4JW6-222" target="-6jkyIE3yQVWvQFI4JW6-254" parent="1">
          <mxGeometry relative="1" as="geometry">
            <mxPoint x="500" y="2282" as="sourcePoint" />
            <mxPoint x="500" y="2152" as="targetPoint" />
          </mxGeometry>
        </mxCell>
        <mxCell id="-6jkyIE3yQVWvQFI4JW6-254" value="" style="rhombus;whiteSpace=wrap;html=1;fontFamily=Helvetica;fontSize=11;fontColor=default;labelBackgroundColor=default;" vertex="1" parent="1">
          <mxGeometry x="460" y="2172" width="80" height="80" as="geometry" />
        </mxCell>
        <mxCell id="-6jkyIE3yQVWvQFI4JW6-255" value="" style="edgeStyle=none;shape=connector;rounded=0;orthogonalLoop=1;jettySize=auto;html=1;exitX=0.5;exitY=1;exitDx=0;exitDy=0;entryX=0.5;entryY=0;entryDx=0;entryDy=0;strokeColor=default;align=center;verticalAlign=middle;fontFamily=Helvetica;fontSize=11;fontColor=default;labelBackgroundColor=default;endArrow=none;" edge="1" source="-6jkyIE3yQVWvQFI4JW6-222" target="-6jkyIE3yQVWvQFI4JW6-256" parent="1">
          <mxGeometry relative="1" as="geometry">
            <mxPoint x="500" y="2342" as="sourcePoint" />
            <mxPoint x="500" y="2476" as="targetPoint" />
          </mxGeometry>
        </mxCell>
        <mxCell id="-6jkyIE3yQVWvQFI4JW6-256" value="" style="rhombus;whiteSpace=wrap;html=1;fontFamily=Helvetica;fontSize=11;fontColor=default;labelBackgroundColor=default;" vertex="1" parent="1">
          <mxGeometry x="460" y="2372" width="80" height="80" as="geometry" />
        </mxCell>
        <mxCell id="-6jkyIE3yQVWvQFI4JW6-257" value="SCHEDULE" style="rounded=0;whiteSpace=wrap;html=1;fontFamily=Helvetica;fontSize=11;fontColor=default;labelBackgroundColor=default;" vertex="1" parent="1">
          <mxGeometry x="1605" y="2280" width="120" height="60" as="geometry" />
        </mxCell>
        <mxCell id="-6jkyIE3yQVWvQFI4JW6-258" value="" style="edgeStyle=none;shape=connector;rounded=0;orthogonalLoop=1;jettySize=auto;html=1;exitX=1;exitY=0.5;exitDx=0;exitDy=0;entryX=0;entryY=0.5;entryDx=0;entryDy=0;strokeColor=default;align=center;verticalAlign=middle;fontFamily=Helvetica;fontSize=11;fontColor=default;labelBackgroundColor=default;endArrow=none;" edge="1" source="-6jkyIE3yQVWvQFI4JW6-226" target="-6jkyIE3yQVWvQFI4JW6-259" parent="1">
          <mxGeometry relative="1" as="geometry">
            <mxPoint x="1435" y="2310" as="sourcePoint" />
            <mxPoint x="1605" y="2310" as="targetPoint" />
          </mxGeometry>
        </mxCell>
        <mxCell id="-6jkyIE3yQVWvQFI4JW6-259" value="" style="rhombus;whiteSpace=wrap;html=1;fontFamily=Helvetica;fontSize=11;fontColor=default;labelBackgroundColor=default;" vertex="1" parent="1">
          <mxGeometry x="1485" y="2270" width="80" height="80" as="geometry" />
        </mxCell>
        <mxCell id="-6jkyIE3yQVWvQFI4JW6-260" value="V2" style="text;html=1;align=center;verticalAlign=middle;resizable=0;points=[];autosize=1;strokeColor=none;fillColor=none;fontFamily=Helvetica;fontSize=11;fontColor=default;labelBackgroundColor=default;" vertex="1" parent="1">
          <mxGeometry x="120" y="2010" width="40" height="30" as="geometry" />
        </mxCell>
        <mxCell id="-6jkyIE3yQVWvQFI4JW6-266" style="edgeStyle=none;shape=connector;rounded=0;orthogonalLoop=1;jettySize=auto;html=1;exitX=0.5;exitY=0;exitDx=0;exitDy=0;entryX=1;entryY=0.75;entryDx=0;entryDy=0;strokeColor=default;align=center;verticalAlign=middle;fontFamily=Helvetica;fontSize=11;fontColor=default;labelBackgroundColor=default;endArrow=none;" edge="1" parent="1" source="-6jkyIE3yQVWvQFI4JW6-262" target="-6jkyIE3yQVWvQFI4JW6-216">
          <mxGeometry relative="1" as="geometry">
            <mxPoint x="660" y="2137" as="targetPoint" />
            <Array as="points">
              <mxPoint x="965" y="2140" />
            </Array>
          </mxGeometry>
        </mxCell>
        <mxCell id="-6jkyIE3yQVWvQFI4JW6-262" value="" style="rhombus;whiteSpace=wrap;html=1;fontFamily=Helvetica;fontSize=11;fontColor=default;labelBackgroundColor=default;" vertex="1" parent="1">
          <mxGeometry x="925" y="2172" width="80" height="80" as="geometry" />
        </mxCell>
        <mxCell id="-6jkyIE3yQVWvQFI4JW6-269" style="edgeStyle=none;shape=connector;rounded=0;orthogonalLoop=1;jettySize=auto;html=1;exitX=0.5;exitY=1;exitDx=0;exitDy=0;entryX=1;entryY=0.25;entryDx=0;entryDy=0;strokeColor=default;align=center;verticalAlign=middle;fontFamily=Helvetica;fontSize=11;fontColor=default;labelBackgroundColor=default;endArrow=none;" edge="1" parent="1" source="-6jkyIE3yQVWvQFI4JW6-263" target="-6jkyIE3yQVWvQFI4JW6-218">
          <mxGeometry relative="1" as="geometry">
            <mxPoint x="660" y="2491" as="targetPoint" />
            <Array as="points">
              <mxPoint x="965" y="2490" />
            </Array>
          </mxGeometry>
        </mxCell>
        <mxCell id="-6jkyIE3yQVWvQFI4JW6-263" value="" style="rhombus;whiteSpace=wrap;html=1;fontFamily=Helvetica;fontSize=11;fontColor=default;labelBackgroundColor=default;" vertex="1" parent="1">
          <mxGeometry x="925" y="2372" width="80" height="80" as="geometry" />
        </mxCell>
        <mxCell id="-6jkyIE3yQVWvQFI4JW6-264" value="" style="edgeStyle=none;shape=connector;rounded=0;orthogonalLoop=1;jettySize=auto;html=1;exitX=1;exitY=0.5;exitDx=0;exitDy=0;entryX=0;entryY=0.5;entryDx=0;entryDy=0;strokeColor=default;align=center;verticalAlign=middle;fontFamily=Helvetica;fontSize=11;fontColor=default;labelBackgroundColor=default;endArrow=none;" edge="1" parent="1" source="-6jkyIE3yQVWvQFI4JW6-233" target="-6jkyIE3yQVWvQFI4JW6-265">
          <mxGeometry relative="1" as="geometry">
            <mxPoint x="1025" y="2310" as="sourcePoint" />
            <mxPoint x="1315" y="2310" as="targetPoint" />
          </mxGeometry>
        </mxCell>
        <mxCell id="-6jkyIE3yQVWvQFI4JW6-265" value="" style="rhombus;whiteSpace=wrap;html=1;fontFamily=Helvetica;fontSize=11;fontColor=default;labelBackgroundColor=default;" vertex="1" parent="1">
          <mxGeometry x="1085" y="2270" width="80" height="80" as="geometry" />
        </mxCell>
      </root>
    </mxGraphModel>
  </diagram>
</mxfile>
